<svg xmlns="http://www.w3.org/2000/svg" width="23" height="20" viewBox="0 0 23 20">
    <g fill="none" fill-rule="evenodd" stroke="#FFF" stroke-linecap="round" stroke-linejoin="round" stroke-width="1.5">
        <path d="M11.395 16.422H0c.012-1.174.255-2.332.714-3.411C1.219 12 3.32 11.305 5.96 10.328c.713-.264.596-2.128.28-2.476C5.222 6.749 4.724 5.264 4.87 3.77c-.092-.951.216-1.898.85-2.613C6.353.443 7.255.024 8.21 0c.956.024 1.858.443 2.492 1.158.633.715.941 1.662.85 2.613.146 1.494-.353 2.979-1.37 4.082-.317.349-.434 2.212.28 2.476.754.28 1.464.536 2.106.783M16.32 10.813L16.32 17.827M19.827 14.32L12.813 14.32" transform="translate(1.2 1)"/>
    </g>
</svg>
