<svg xmlns="http://www.w3.org/2000/svg" width="24" height="24" viewBox="0 0 24 24">
    <g fill="none" fill-rule="evenodd" stroke="#002452" stroke-linecap="round" stroke-linejoin="round" stroke-width="1.5">
        <path d="M.632 17.053c.012-1.173.254-2.332.713-3.41.506-1.011 2.606-1.706 5.246-2.684.714-.264.596-2.127.28-2.476-1.017-1.102-1.516-2.587-1.37-4.08-.091-.952.217-1.898.85-2.613C6.985 1.075 7.887.655 8.842.632c.955.023 1.857.443 2.491 1.158.634.715.942 1.661.85 2.612.146 1.494-.352 2.98-1.37 4.083-.316.348-.434 2.211.28 2.475 2.64.978 4.742 1.677 5.246 2.683.459 1.08.701 2.238.714 3.41H.632zM13.784.93c.43-.198.9-.3 1.374-.298.955.023 1.857.443 2.49 1.158.634.715.942 1.661.85 2.612.147 1.494-.351 2.98-1.37 4.083-.315.348-.433 2.211.28 2.475 2.64.978 4.743 1.677 5.247 2.683.459 1.08.701 2.238.713 3.41h-3.79" transform="translate(0 3)"/>
    </g>
</svg>
