<svg xmlns="http://www.w3.org/2000/svg" width="16" height="16" viewBox="0 0 16 16">
    <g fill="none" fill-rule="evenodd" stroke="#1565C0" stroke-linecap="round" stroke-linejoin="round" stroke-width="1.5">
        <path d="M8 5H6.57c-.574 0-1.072.394-1.203.952-.132.558.137 1.133.65 1.39l1.3.65c.513.255.783.83.65 1.39-.13.557-.63.952-1.203.951h-1.43M6.667 5.001L6.667 4.001M6.667 11.335L6.667 10.335" transform="translate(1.3)"/>
        <path d="M0 2.517V7.61c-.006 3.381 2.068 6.419 5.219 7.646l.714.278c.474.184 1 .184 1.474 0l.711-.275c3.151-1.229 5.223-4.267 5.215-7.65v-5.09c.002-.401-.23-.766-.593-.934C10.827.742 8.757.316 6.667.334 4.577.313 2.507.74.593 1.58c-.364.168-.596.535-.593.936z" transform="translate(1.3)"/>
    </g>
</svg>
