<svg xmlns="http://www.w3.org/2000/svg" width="18" height="18" viewBox="0 0 18 18">
    <path fill="none" fill-rule="evenodd" stroke="#FFF" stroke-linecap="round" stroke-linejoin="round" stroke-width="1.333" d="M6.88 5.657c.315-.316.492-.744.492-1.19 0-.446-.177-.875-.493-1.19L5.093 1.493c-.656-.657-1.721-.657-2.378 0l-.98.979C.892 3.32.759 4.646 1.42 5.645c2.88 4.337 6.598 8.055 10.934 10.936 1 .661 2.326.528 3.175-.319l.98-.979c.656-.657.656-1.722 0-2.379l-1.786-1.782c-.657-.657-1.722-.657-2.379 0l-.595.594c-1.995-1.64-3.826-3.472-5.467-5.468l.598-.591z"/>
</svg>
