<svg xmlns="http://www.w3.org/2000/svg" width="24" height="24" viewBox="0 0 24 24">
    <g fill="none" fill-rule="evenodd" stroke="#1565C0" stroke-linecap="round" stroke-linejoin="round" stroke-width="1.5">
        <path d="M5.246 23.248h-3c-.828 0-1.5-.672-1.5-1.5v-19.5c0-.828.672-1.5 1.5-1.5h10.629c.398 0 .78.158 1.061.44l5.871 5.871c.281.281.439.663.439 1.061v4.628"/>
        <path d="M20.246 8.248h-6c-.828 0-1.5-.672-1.5-1.5v-6M8.246 23.248L8.246 15.748M8.246 15.748H9c1.243 0 2.25 1.007 2.25 2.25s-1.007 2.25-2.25 2.25h-.75M14.246 23.248c1.657 0 3-1.343 3-3v-1.5c0-1.657-1.343-3-3-3v7.5zM20.246 23.248v-6c0-.828.672-1.5 1.5-1.5h1.5M20.246 20.248L22.496 20.248"/>
    </g>
</svg>
