<svg xmlns="http://www.w3.org/2000/svg" width="23" height="24" viewBox="0 0 23 24">
    <g fill="none" fill-rule="evenodd">
        <path fill="#D8D8D8" fill-opacity="0" d="M0 0H24V24H0z" transform="translate(-.73)"/>
        <path stroke="#002452" stroke-width="1.5" d="M12 18l-4.084 2.147c-.49.257-1.094.07-1.35-.42-.103-.194-.139-.417-.101-.634l.69-4.03c.056-.324-.051-.655-.287-.885L3.94 11.324c-.395-.385-.403-1.018-.018-1.414.154-.157.355-.26.573-.292l4.046-.587c.326-.048.607-.252.753-.548l1.81-3.666c.244-.495.843-.699 1.339-.454.197.097.356.257.454.454l1.81 3.666c.145.296.426.5.752.548l4.046.587c.547.08.926.587.846 1.134-.031.218-.134.419-.291.572l-2.928 2.854c-.236.23-.343.56-.288.885l.691 4.03c.094.544-.272 1.061-.816 1.155-.217.037-.44.002-.635-.1L12 18h0z" transform="translate(-.73)"/>
    </g>
</svg>
