<svg xmlns="http://www.w3.org/2000/svg" width="21" height="14" viewBox="0 0 21 14">
    <path fill="#FFF" stroke="#FFF" stroke-width=".65" d="M2.95 1C1.877 1 1 1.877 1 2.95v8.58c0 1.073.878 1.95 1.95 1.95h10.53c1.072 0 1.95-.877 1.95-1.95V9.446l4.497 2.425.573.317V2.292l-.573.317-4.497 2.425V2.95c0-1.072-.877-1.95-1.95-1.95H2.95zm0 .78h10.53c.65 0 1.17.52 1.17 1.17v8.58c0 .65-.52 1.17-1.17 1.17H2.95c-.65 0-1.17-.52-1.17-1.17V2.95c0-.65.52-1.17 1.17-1.17zm16.77 1.816v7.288l-4.29-2.316V5.912l4.29-2.316z"/>
</svg>
