<svg xmlns="http://www.w3.org/2000/svg" width="261" height="205" viewBox="0 0 261 205">
    <defs>
        <linearGradient id="a" x1="0%" y1="50%" y2="50%">
            <stop offset="8.98%" stop-color="#EEE"/>
            <stop offset="81.78%" stop-color="#D6D7D8"/>
        </linearGradient>
        <linearGradient id="b" x1="105.26%" x2="20.253%" y1="50.93%" y2="49.498%">
            <stop offset="8.98%" stop-color="#EEE"/>
            <stop offset="81.78%" stop-color="#D6D7D8"/>
        </linearGradient>
        <linearGradient id="c" x1="68.31%" x2="-.598%" y1="57.831%" y2="28.36%">
            <stop offset="8.98%" stop-color="#EEE"/>
            <stop offset="81.78%" stop-color="#D6D7D8"/>
        </linearGradient>
        <linearGradient id="d" x1="-37.549%" x2="62.451%" y1="49.996%" y2="49.996%">
            <stop offset="0%" stop-color="#EEE"/>
            <stop offset="100%" stop-color="#DCE3EA"/>
        </linearGradient>
        <linearGradient id="e" x1="-59.684%" x2="40.316%" y1="50.006%" y2="50.006%">
            <stop offset="0%" stop-color="#EEE"/>
            <stop offset="100%" stop-color="#DCE3EA"/>
        </linearGradient>
        <linearGradient id="f" x1="56.801%" x2="88.724%" y1="57.559%" y2="93.042%">
            <stop offset="0%" stop-color="#EEE"/>
            <stop offset="100%" stop-color="#DCE3EA"/>
        </linearGradient>
        <linearGradient id="g" x1="46.237%" x2="86.451%" y1="45.022%" y2="98.218%">
            <stop offset="0%" stop-color="#EEE"/>
            <stop offset="100%" stop-color="#DCE3EA"/>
        </linearGradient>
        <linearGradient id="h" x1="40.528%" x2="90.87%" y1="37.471%" y2="104.063%">
            <stop offset="0%" stop-color="#EEE"/>
            <stop offset="100%" stop-color="#DCE3EA"/>
        </linearGradient>
        <linearGradient id="i" x1="49.999%" x2="49.999%" y1="116.041%" y2="-.597%">
            <stop offset="0%" stop-color="#FFBEB6"/>
            <stop offset="100%" stop-color="#F2A19C"/>
        </linearGradient>
    </defs>
    <g fill="none" fill-rule="evenodd">
        <path fill="url(#a)" fill-rule="nonzero" d="M244.694 194.74h-3.047l-7.107-78.614h3.012l.025-.09z" transform="translate(0 10.123)"/>
        <path fill="url(#b)" fill-rule="nonzero" d="M166.45 116.118l71.103.01 2.182-7.214h-73.286z" transform="translate(0 10.123)"/>
        <path fill="url(#c)" fill-rule="nonzero" d="M239.735 108.914H199.36l21.26-68.174h40.374z" transform="translate(0 10.123)"/>
        <path fill="url(#d)" fill-rule="nonzero" d="M102.839 70.377h39.121v4.259h-39.121z" transform="translate(0 10.123)"/>
        <path fill="url(#e)" fill-rule="nonzero" d="M58.09 70.352h44.749v4.284H58.09z" transform="translate(0 10.123)"/>
        <path fill="url(#f)" fill-rule="nonzero" d="M111.475 70.352H58.09L40.992 37.316h53.385z" transform="translate(0 10.123)"/>
        <path fill="url(#g)" fill-rule="nonzero" d="M66.027 32.22H25.068L11.95 6.873h40.958z" transform="translate(0 10.123)"/>
        <path fill="url(#h)" fill-rule="nonzero" d="M104.365 20.692h-32.72L61.167.444h32.72z" transform="translate(0 10.123)"/>
        <path fill="#1565C0" d="M3.438 204.72L.4 204.717.43 84.183H162.13v3.037H3.467z" opacity=".605"/>
        <g>
            <path fill="#FACBA2" d="M163.563 72.4s-8.897 1.656-13.597-.029c-4.7-1.684-11.465-6.004-13.77-4.408a2931.692 2931.692 0 0 0-9.275 6.488s1.951 2.129 6.208-.532c4.257-2.66 4.851-.927 7.157.758s6.843 6.473 11.011 5.054c4.168-1.418 6.385-.975 10.11 1.508 3.724 2.482 9.31 5.764 9.31 5.764L167.525 74.5l-3.962-2.1z"/>
            <path fill="#1565C0" d="M141.247 184.985H125.98s3.096-52.01 4.543-66.442c1.456-14.504 2.342-19.685 22.172-21.625 22.644-2.215 36.408-2.172 36.408-2.172l-22.818 19.252a18.33 18.33 0 0 0-5.973 18.41l.268 1.084c.99 4.002.601 8.221-1.102 11.975l-8.01 17.652s1.301 14.752-10.222 21.866z"/>
            <path fill="#1565C0" d="M223.52 98.87c-.774 3.002-.554 16.536-15.993 19.505-17.894 3.442-28.688 2.734-33.861 4.145-4.204 1.147-5.414 2.752-4.969 5.733.446 2.976 4.711 6.433 6.053 12.092 1.341 5.659-1.186 9.206 4.25 16.2 5.302 6.822 8.52 13.59 3.632 28.44H166.4s-29.191-56.163-30.68-67.926c-1.488-11.764 7.335-14.394 11.506-15.589 1.58-.455 6.843-1.906 17.533-4.528 2.288 1.539 7.406 4.42 12.128 3.133 6.317-1.726 7.75-4.165 15.074-2.44 4.343 1.023 12.072 2.4 18.268.168a84.05 84.05 0 0 0 13.292 1.068z"/>
            <path fill="#002452" fill-rule="nonzero" d="M197.903 51.845a35.693 35.693 0 0 0-.45 2.126c-3.012 16.506-9.652 20.566-19.235 21.39-5.155.444-10.192 1.124-13.806.75l-.849-3.711c26.984-2.015 32.042-15.559 34.34-20.555z"/>
            <path fill="#FACBA2" d="M159.95 76.27s-12.859-.443-17.559-2.128c-4.7-1.685-11.971-5.498-14.277-3.902-2.305 1.596-10.286 8.513-10.286 8.513s1.95 2.128 6.208-.532c4.257-2.66 4.345-3.459 6.65-1.774 2.307 1.685 8.868 6.474 13.036 5.055 4.168-1.419 6.385-.975 10.11 1.507 3.724 2.483 9.31 5.765 9.31 5.765L159.95 76.27"/>
            <path fill="url(#i)" fill-rule="nonzero" d="M169.902 32.41a26.277 26.277 0 0 0-6.894 5.583l-.223.172a29.653 29.653 0 0 0-2.146-8.534c2.39-.162 5.229-1.149 8.499-3.568a11.707 11.707 0 0 0 .764 6.347z" transform="translate(41.506)"/>
            <path fill="#FFBEB6" fill-rule="nonzero" d="M212.507 20.399c-.147 1.012-1.428 2.925-1.863 5.664-10.606 8.962-17.893-1.134-17.893-1.134-1.54.45-3.418-.93-2.815-2.171 2.438-5.024 2.086-5.72 2.648-8.185.146-.643.268-1.225.37-1.721.014-.066.03-.132.04-.193.08-.41.146-.749.192-1.002l.086-.49s5.639 5.501 12.391 4.788c6.752-.71 7.112 2.576 6.844 4.444z"/>
            <path fill="#FFF" fill-rule="nonzero" d="M214.622 99.63a.08.08 0 0 0-.111.02.074.074 0 0 0 .012.104l.003.003a.08.08 0 0 0 .112-.02.083.083 0 0 0-.016-.107zm-6.767 4.1a.08.08 0 0 0-.06.091.077.077 0 1 0 .064-.092l-.004.001zm-.289-1.842a.079.079 0 0 0-.07.086c.009.044.051.072.096.065a.077.077 0 0 0 .06-.09.072.072 0 0 0-.086-.061zm-.298-1.853a.084.084 0 0 0-.061.096c.007.04.045.067.086.06a.079.079 0 0 0 .066-.085.084.084 0 0 0-.091-.071zm-7.006 1.873a.08.08 0 0 0-.101.02.076.076 0 0 0 .117.098l.004-.007a.08.08 0 0 0-.02-.111zm10.969-.436a.073.073 0 0 0-.1-.023c-.003 0-.004.002-.006.003a.069.069 0 0 0-.02.101.07.07 0 0 0 .094.03l.007-.004a.074.074 0 0 0 .028-.101l-.003-.006zm-.977-1.594a.079.079 0 0 0-.101-.025c-.015.015-.03.025-.036.04v.01a.056.056 0 0 0 .01.061c.001.006.005.01.01.01h.006c.005.005.01.015.02.02a.098.098 0 0 0 .066-.005.081.081 0 0 0 .025-.111zm-.977-1.59a.075.075 0 1 0-.026.107.077.077 0 0 0 .027-.105v-.001zm-5.143 4.328a.084.084 0 0 0-.096.061.078.078 0 1 0 .15.042l.002-.006a.089.089 0 0 0-.056-.097zm.436-1.812a.08.08 0 0 0-.096.056.079.079 0 0 0 .151.04.083.083 0 0 0-.055-.096zm13.13 5.725a.152.152 0 0 0-.208-.035.147.147 0 0 0 .172.238.141.141 0 0 0 .04-.196l-.004-.007zm-2.05-2.89a.146.146 0 0 0-.203-.036.144.144 0 0 0-.042.198l.007.01a.145.145 0 0 0 .202.035.153.153 0 0 0 .036-.207zm-2.05-2.885a.152.152 0 0 0-.208-.036.142.142 0 0 0-.04.197l.005.006a.148.148 0 0 0 .243-.167zm-8.479 11.93a.152.152 0 0 0-.172.117.145.145 0 0 0 .122.167.149.149 0 0 0 .172-.121.139.139 0 0 0-.113-.162h-.009zm.593-3.497a.144.144 0 0 0-.167.117v.005a.149.149 0 0 0 .116.172.153.153 0 0 0 .172-.122.158.158 0 0 0-.121-.172zm.592-3.493a.157.157 0 0 0-.172.121.147.147 0 1 0 .172-.121zm.587-3.493a.155.155 0 0 0-.167.122.149.149 0 1 0 .173-.12l-.006-.002zm.597-3.492a.145.145 0 0 0-.166.119v.002a.143.143 0 0 0 .108.17l.008.002a.141.141 0 0 0 .165-.112l.002-.01a.15.15 0 0 0-.117-.171zm13.14 2.272a.147.147 0 0 0-.162.244l.006.005c.069.04.157.02.202-.046a.143.143 0 0 0-.037-.197l-.008-.006zm-8.093 9.805a.145.145 0 1 0 .06.284.15.15 0 0 0 .117-.178.149.149 0 0 0-.177-.106zm-.79-3.452a.139.139 0 0 0-.111.172.144.144 0 0 0 .171.111h.001a.15.15 0 0 0 .116-.177.145.145 0 0 0-.174-.107l-.003.001zm-.794-3.457a.147.147 0 0 0-.107.177.144.144 0 0 0 .171.111h.001a.153.153 0 0 0 .117-.177.155.155 0 0 0-.182-.111zm-.79-3.452a.145.145 0 0 0-.107.174v.003a.138.138 0 0 0 .162.109c.004 0 .007-.002.01-.003a.14.14 0 0 0 .114-.164l-.002-.008a.151.151 0 0 0-.177-.111zm-10.903 8.225a.135.135 0 0 0-.197.05.142.142 0 0 0 .045.198.144.144 0 0 0 .2-.04l.003-.006a.149.149 0 0 0-.051-.202zm1.888-2.997a.142.142 0 0 0-.197.038l-.005.008a.147.147 0 0 0 .04.202c.072.036.16.015.208-.05a.147.147 0 0 0-.046-.198zm1.883-3.001a.145.145 0 0 0-.201.038l-.001.002a.148.148 0 0 0 .04.205.14.14 0 0 0 .199-.037l.003-.006a.146.146 0 0 0-.04-.202zm1.878-3.002a.143.143 0 0 0-.196.048l-.002.003a.137.137 0 0 0 .035.19l.011.007c.069.04.157.02.203-.045a.144.144 0 0 0-.044-.198l-.007-.005zm10.974 10.311a.12.12 0 0 0-.087.145l.006.017c.02.066.089.103.155.083l.007-.002a.129.129 0 0 0 .08-.162.123.123 0 0 0-.161-.081zm-.997-3.007a.126.126 0 0 0-.081.167.133.133 0 0 0 .162.086.133.133 0 0 0-.081-.253zm-.83-2.92a.084.084 0 0 0-.041-.061h-.005a.127.127 0 0 0-.122-.02.133.133 0 0 0-.082.17l.001.002a.13.13 0 0 0 .162.08.103.103 0 0 0 .071-.065.098.098 0 0 0 .015-.106zm-1.16-3.083a.136.136 0 0 0-.086.172c.027.066.099.1.167.081a.126.126 0 0 0 .081-.167.131.131 0 0 0-.162-.086zM202.712 109a.133.133 0 0 0-.177.061.131.131 0 0 0 .056.177c.067.03.146.004.182-.06a.15.15 0 0 0-.06-.178zm1.417-2.824a.133.133 0 0 0-.177.06.126.126 0 0 0 .052.17l.004.003a.122.122 0 0 0 .166-.045l.006-.011a.128.128 0 0 0-.047-.175l-.004-.002zm1.418-2.825a.133.133 0 0 0-.177.061.122.122 0 0 0 .055.172.133.133 0 0 0 .177-.06.13.13 0 0 0-.055-.173zm1.412-2.83a.15.15 0 0 0-.177.062.133.133 0 0 0 .06.177c.065.03.142.006.178-.056a.143.143 0 0 0-.061-.182zm12.092 2.46a.126.126 0 0 0-.187-.01.118.118 0 0 0-.015.178.121.121 0 0 0 .182.015.13.13 0 0 0 .02-.182zm-2.07-2.393a.14.14 0 0 0-.187-.01.134.134 0 0 0-.01.187.127.127 0 0 0 .177.01.13.13 0 0 0 .024-.183l-.004-.004zm-7.405 8.64a.14.14 0 0 0-.142.127.132.132 0 0 0 .263.02.139.139 0 0 0-.121-.147zm.228-3.148a.13.13 0 1 0 .121.141.135.135 0 0 0-.121-.141zm.227-3.149a.12.12 0 0 0-.136.117.13.13 0 0 0 .121.136.127.127 0 1 0 .02-.252h-.005zm.228-3.153a.13.13 0 0 0-.142.116v.01c.002.025.009.05.02.071h.006c.005.005.01.015.02.02.022.023.05.037.081.04a.13.13 0 0 0 .015-.257zm-11.45 4.166a.14.14 0 0 0-.187-.016.135.135 0 0 0-.01.188.129.129 0 0 0 .181.016l.001-.001a.135.135 0 0 0 .016-.187zm2.39-2.07a.134.134 0 0 0-.183-.01.125.125 0 0 0-.026.174l.006.007a.135.135 0 0 0 .187.016.13.13 0 0 0 .02-.183l-.004-.005zm16.445.561a.09.09 0 0 0-.106-.03.078.078 0 0 0-.03.106c.016.036.059.05.094.034l.007-.004a.08.08 0 0 0 .035-.106zm-.916-1.62a.082.082 0 0 0-.106-.03.078.078 0 1 0 .076.137.083.083 0 0 0 .03-.107zm-6.93 2.531a.073.073 0 0 0-.09.048v.003c-.013.04.01.083.05.096a.08.08 0 0 0 .096-.056.076.076 0 0 0-.055-.09zm.502-1.797a.07.07 0 0 0-.091.051.074.074 0 0 0 .045.095l.005.001a.089.089 0 0 0 .101-.05.08.08 0 0 0-.06-.097zm.506-1.797a.077.077 0 0 0-.095.053l-.001.003c-.01.04.015.082.055.091a.073.073 0 0 0 .09-.048l.001-.002a.078.078 0 0 0-.05-.097zm2.91 2.886a.07.07 0 0 0-.066.086c.01.04.046.068.087.066a.079.079 0 0 0 .065-.087.075.075 0 0 0-.083-.066h-.003zm-.227-1.853c-.041 0-.066.04-.066.086.008.04.045.068.086.066a.081.081 0 0 0 .071-.09v-.001a.075.075 0 0 0-.091-.06zm-6.606 0a.07.07 0 0 0-.1.007l-.006.008a.076.076 0 1 0 .106-.015zm1.154-1.463a.07.07 0 0 0-.106.015.068.068 0 0 0 .004.097l.006.005a.08.08 0 0 0 .111-.01.074.074 0 0 0-.012-.104l-.003-.003zm10.377 5.168a.082.082 0 0 0-.06.102l.004.01c.017.045.065.069.111.055a.094.094 0 0 0 .056-.116.086.086 0 0 0-.11-.05h-.001zm-.689-2.014a.092.092 0 0 0-.06.111c.018.046.068.07.116.056a.082.082 0 0 0 .054-.104l-.004-.008a.084.084 0 0 0-.103-.056h-.003zm-.693-2.015a.09.09 0 0 0-.056.115v.002c0 .005 0 .005.005.01a.1.1 0 0 0 .106.045.097.097 0 0 0 .056-.116.089.089 0 0 0-.111-.056zm-7.492 3.478a.098.098 0 0 0-.121.045.088.088 0 0 0 .04.117c.04.022.089.009.112-.03l.005-.011a.09.09 0 0 0-.036-.121zm.932-1.914a.097.097 0 0 0-.117.046.084.084 0 0 0 .033.115l.003.001c.042.024.095.01.12-.032l.001-.003a.102.102 0 0 0-.04-.127zm.936-1.908a.097.097 0 0 0-.121.04.091.091 0 0 0 .04.117.082.082 0 0 0 .117-.04.084.084 0 0 0-.03-.115l-.006-.002zm10.351 1.18a.089.089 0 0 0-.125-.012l-.001.001a.093.093 0 0 0-.01.127c.033.036.089.039.125.006l.001-.001a.088.088 0 0 0 .01-.122zm-7.744 2.677h-.005a.089.089 0 0 0-.086.086.082.082 0 0 0 .073.09l.008.001a.052.052 0 0 0 .035-.01.064.064 0 0 0 .056-.07.087.087 0 0 0-.077-.097h-.004zm.132-2.126a.089.089 0 0 0-.097.08.089.089 0 0 0 .08.097h.006a.086.086 0 0 0 .092-.08.087.087 0 0 0-.077-.096l-.004-.001zm.131-2.12a.08.08 0 0 0-.09.067l-.001.013a.087.087 0 0 0 .076.096h.005a.09.09 0 0 0 .091-.086.082.082 0 0 0-.073-.09h-.008zm-7.552.758a.083.083 0 0 0-.117-.004l-.004.004a.087.087 0 0 0-.01.122.09.09 0 0 0 .137-.116l-.006-.006zm1.594-1.407a.088.088 0 0 0-.124-.007l-.002.002a.083.083 0 0 0-.005.117l.005.005a.078.078 0 0 0 .116.01.088.088 0 0 0 .012-.125l-.002-.002zm6.778 14.244a.15.15 0 0 0-.166.132v.005a.152.152 0 0 0 .136.162.156.156 0 0 0 .167-.137.15.15 0 0 0-.135-.162h-.002zm.294-3.64a.149.149 0 0 0-.162.134v.003a.156.156 0 0 0 .141.162.149.149 0 0 0 .162-.136.149.149 0 0 0-.137-.162h-.004zm.303-3.639a.15.15 0 1 0-.034.298h.01a.153.153 0 0 0 .166-.136.16.16 0 0 0-.142-.162zm.3-3.64a.156.156 0 0 0-.163.143.152.152 0 0 0 .137.162.153.153 0 0 0 .025-.304zm-14.462 3.944a.147.147 0 0 0-.207-.02l-.006.005a.142.142 0 0 0-.02.207.159.159 0 0 0 .218.02.156.156 0 0 0 .015-.212zm2.784-2.359a.149.149 0 1 0-.233.187l.005.005c.055.062.147.07.212.02a.152.152 0 0 0 .016-.212zm2.784-2.364a.152.152 0 0 0-.213-.02.164.164 0 0 0-.02.218c.054.062.15.069.212.015a.148.148 0 0 0 .025-.208l-.004-.005zm2.784-2.358a.147.147 0 0 0-.207-.025l-.006.004a.163.163 0 0 0-.02.218c.054.062.15.069.212.015a.147.147 0 0 0 .025-.207l-.004-.005zm10.336 4.575a.152.152 0 0 0 .085.29l.006-.001a.152.152 0 0 0-.085-.29l-.006.001zm-1.023-3.472a.213.213 0 0 0-.091 0 .156.156 0 0 0-.101.192.155.155 0 0 0 .293-.096.148.148 0 0 0-.1-.096zm-10.564 9.4a.152.152 0 0 0-.202.07.156.156 0 0 0 .06.203.162.162 0 0 0 .208-.066.153.153 0 0 0-.063-.206l-.003-.001zm1.67-3.245a.148.148 0 0 0-.198.063l-.004.008a.145.145 0 0 0 .059.196l.002.001c.074.04.167.011.206-.063l.001-.002a.146.146 0 0 0-.056-.198l-.01-.005zm1.666-3.25a.152.152 0 0 0-.197.071.148.148 0 0 0 .061.2l.004.003c.07.037.158.01.195-.06l.003-.006a.153.153 0 0 0-.064-.207h-.002zm1.67-3.244a.155.155 0 0 0-.202.07.15.15 0 0 0 .268.137.153.153 0 0 0-.063-.206l-.003-.001zm8.276 1.782a.155.155 0 0 0-.096.192.165.165 0 0 0 .198.091.149.149 0 0 0 .088-.192l-.002-.005a.144.144 0 0 0-.185-.087h-.003zm-11.414 9.622a.157.157 0 0 0-.202.08.154.154 0 0 0 .076.198c.072.035.159.004.194-.068 0-.003.002-.005.003-.008a.152.152 0 0 0-.07-.202zm1.524-3.3a.156.156 0 0 0-.203.08.152.152 0 0 0 .279.122.159.159 0 0 0-.076-.202zm1.523-3.295a.148.148 0 0 0-.197.069v.001a.15.15 0 1 0 .201-.068l-.004-.002zm1.524-3.3a.146.146 0 0 0-.196.066l-.002.004a.15.15 0 0 0 .076.198.14.14 0 0 0 .198-.071.148.148 0 0 0-.074-.197h-.002zm3.33 6.119a.155.155 0 0 0-.156.147c0 .084.068.152.152.152.078-.001.143-.06.151-.137a.157.157 0 0 0-.147-.162zm.152-3.634a.157.157 0 0 0-.162.146c-.001.082.061.15.142.157a.15.15 0 0 0 .157-.141v-.006a.147.147 0 0 0-.137-.156zm.142-3.635a.16.16 0 0 0-.162.147.154.154 0 0 0 .15.157h.002a.151.151 0 0 0 .157-.142.16.16 0 0 0-.147-.162zm-13.014 5.219a.143.143 0 0 0-.212-.005.145.145 0 0 0-.013.205l.003.002a.147.147 0 0 0 .207.015l.005-.005c.061-.05.07-.14.021-.2l-.01-.012zm2.673-2.47a.153.153 0 0 0-.223.207c.056.06.151.065.213.01a.149.149 0 0 0 .018-.21l-.008-.007zm2.673-2.465a.153.153 0 0 0-.223.207c.056.06.15.065.212.01a.149.149 0 0 0 .018-.21l-.007-.007zm.926 4.692a.11.11 0 0 0-.162.02.113.113 0 0 0 .025.157.112.112 0 1 0 .143-.172.032.032 0 0 0-.006-.005zm1.645-2.197a.116.116 0 0 0-.162.02.116.116 0 0 0 .02.162c.05.04.123.03.162-.02a.116.116 0 0 0-.02-.162zm1.64-2.197a.123.123 0 0 0-.162.02.118.118 0 0 0 .025.163c.05.035.118.026.157-.02a.113.113 0 0 0-.016-.16c-.002 0-.003-.002-.004-.003zm2.374 5.513a.12.12 0 0 0-.142.08.124.124 0 0 0 .081.142.118.118 0 0 0 .137-.08.11.11 0 0 0-.07-.14l-.006-.002zm.673-2.658a.106.106 0 0 0-.132.086.109.109 0 0 0 .073.136h.003a.118.118 0 0 0 .142-.085.115.115 0 0 0-.086-.137zm.683-2.657a.12.12 0 0 0-.141.086.104.104 0 0 0 .071.129l.01.002a.11.11 0 0 0 .14-.069l.001-.007a.12.12 0 0 0-.08-.141zm-9.738-.85a.11.11 0 0 0-.15-.043l-.002.002a.108.108 0 0 0-.04.157.11.11 0 0 0 .149.042l.002-.002a.114.114 0 0 0 .04-.157zm2.358-1.398a.116.116 0 0 0-.157-.04.11.11 0 0 0-.042.15l.002.002a.113.113 0 0 0 .152.048l.005-.003a.116.116 0 0 0 .04-.157zm8.165 1.909a.079.079 0 0 0-.086.03c-.01.033.004.07.035.086a.062.062 0 0 0 .08-.034l.001-.001a.066.066 0 0 0-.03-.081zm-2.242 1.872a.092.092 0 0 0-.13-.006l-.007.006a.094.094 0 0 0-.005.142c.038.04.1.042.142.005a.096.096 0 0 0 0-.147zm1.781-1.73a.104.104 0 0 0-.146.146.104.104 0 0 0 .146-.147z" opacity=".71"/>
            <path fill="#FFF" fill-rule="nonzero" d="M52.866 47.534a.089.089 0 0 0-.123.021.085.085 0 0 0 .013.12c.001 0 .002 0 .003.002.04.028.095.019.123-.021a.09.09 0 0 0-.016-.122zm-7.576 4.727a.087.087 0 0 0-.1-.072.087.087 0 0 0-.071.1.087.087 0 0 0 .1.072.087.087 0 0 0 .07-.1zm-.332-2.093a.082.082 0 0 0-.09-.073l-.01.001a.089.089 0 0 0-.077.098c.01.048.056.08.105.074a.086.086 0 0 0 .072-.1zm-.332-2.093a.097.097 0 0 0-.103-.079.095.095 0 0 0-.073.106.087.087 0 0 0 .1.071.089.089 0 0 0 .076-.098zm4.392 1.553a.085.085 0 0 0-.118-.027.085.085 0 0 0-.026.117c.024.04.077.052.117.027a.08.08 0 0 0 .027-.117zm-1.108-1.81a.085.085 0 0 0-.117-.028.097.097 0 0 0-.036.043.084.084 0 0 0 .007.08c.003.006.008.01.014.012l.006.002a.076.076 0 0 0 .097.013.087.087 0 0 0 .032-.119l-.003-.004zm8.45 7.548a.164.164 0 0 0-.233-.04.162.162 0 0 0-.038.227c.05.075.153.095.228.044l.005-.004a.162.162 0 0 0 .04-.226h-.001zm-2.329-3.282a.162.162 0 0 0-.226-.04v.001a.168.168 0 0 0 .191.275.173.173 0 0 0 .035-.236zm-2.325-3.276a.168.168 0 1 0-.041.234.164.164 0 0 0 .044-.229l-.003-.005zm-7.609 1.647a.165.165 0 0 0-.188.136v.001a.167.167 0 1 0 .193-.136l-.005-.001zm15.59-1.388a.166.166 0 1 0 .05.23.166.166 0 0 0-.05-.23zm-8.985 11.252a.169.169 0 1 0-.133.199l.003-.001a.17.17 0 0 0 .13-.198zm-.896-3.92a.169.169 0 1 0-.133.2l.004-.001a.17.17 0 0 0 .129-.199zm-.897-3.919a.177.177 0 0 0-.206-.126.17.17 0 0 0 .075.33.178.178 0 0 0 .131-.204zm-.903-3.916a.165.165 0 1 0-.324.063l.002.008c.02.089.107.144.195.125h.005c.085-.018.141-.1.124-.186l-.002-.01zm-6.16-1.01a.168.168 0 0 0-.226.059.16.16 0 0 0 .051.224c.078.05.18.027.23-.05a.171.171 0 0 0-.054-.232zm20.628.233a.133.133 0 0 0-.052.05.144.144 0 0 0 0 .115c.016-.057.032-.115.052-.165zm-7.99 11.562a.148.148 0 0 0-.28.094.148.148 0 0 0 .28-.094zm-1.13-3.405a.148.148 0 1 0-.094.188.145.145 0 0 0 .095-.182l-.002-.006zm-1.13-3.41a.105.105 0 0 0-.043-.068l-.006-.002a.151.151 0 0 0-.234.169.15.15 0 0 0 .188.094.122.122 0 0 0 .08-.07.129.129 0 0 0 .015-.123zm-1.13-3.405a.149.149 0 0 0-.283.097.15.15 0 0 0 .187.095.151.151 0 0 0 .096-.19v-.002zm-8.526 2.627a.148.148 0 0 0-.199.066v.003a.14.14 0 0 0 .062.197.148.148 0 0 0 .199-.066v-.002a.15.15 0 0 0-.062-.198zm1.604-3.208a.155.155 0 0 0-.2.068.149.149 0 1 0 .265.137.156.156 0 0 0-.065-.205zm13.72 2.789a.147.147 0 0 0-.208-.017c-.002 0-.003.002-.004.003a.14.14 0 0 0-.023.198l.006.007c.05.063.142.073.205.023l.005-.004a.153.153 0 0 0 .019-.21zm-2.349-2.716a.156.156 0 0 0-.212-.013.15.15 0 0 0-.013.212.15.15 0 0 0 .225-.199zM47.14 58.43a.156.156 0 0 0-.159.142.146.146 0 0 0 .137.156.15.15 0 0 0 .162-.135.153.153 0 0 0-.14-.163zm.26-3.579a.156.156 0 0 0-.158.143.147.147 0 0 0 .136.156.142.142 0 0 0 .156-.137.15.15 0 0 0-.134-.162zm.258-3.573a.142.142 0 0 0-.155.128v.009a.147.147 0 0 0 .292.022v-.002a.142.142 0 0 0-.137-.157zm.26-3.578a.15.15 0 0 0-.16.135.166.166 0 0 0 .02.091l.006.002a.144.144 0 0 0 .116.065.147.147 0 0 0 .022-.292h-.003zm8.377 3.021a.089.089 0 0 0-.156.086.089.089 0 0 0 .12.035.091.091 0 0 0 .036-.121zm-1.039-1.84a.089.089 0 0 0-.155.085.089.089 0 0 0 .12.035.091.091 0 0 0 .035-.12zm-7.86 2.87a.087.087 0 1 0 .06.106.086.086 0 0 0-.06-.107zm.567-2.04a.083.083 0 0 0-.105.054l-.002.006a.087.087 0 0 0 .06.107.091.091 0 0 0 .113-.058.089.089 0 0 0-.064-.108h-.002zm.573-2.036a.083.083 0 0 0-.105.054l-.002.006a.087.087 0 1 0 .107-.06zm3.402 3.348a.084.084 0 0 0-.097-.077.085.085 0 0 0-.077.092v.005c.009.047.05.08.098.077a.088.088 0 0 0 .076-.097zm-.255-2.107a.084.084 0 0 0-.1-.072.09.09 0 0 0-.077.098c.009.046.05.079.098.077a.09.09 0 0 0 .08-.097l-.001-.006zm-7.597-.069a.081.081 0 0 0-.122.016.087.087 0 0 0 .016.122.087.087 0 0 0 .122-.016.087.087 0 0 0-.016-.122zm13.21 4.262a.096.096 0 0 0-.12-.062h-.003a.097.097 0 0 0-.064.129c.017.05.07.078.12.062h.003a.102.102 0 0 0 .064-.129zm-.787-2.284a.096.096 0 0 0-.12-.062h-.003a.1.1 0 0 0-.063.13.1.1 0 0 0 .128.062.097.097 0 0 0 .058-.13zm-.78-2.283a.101.101 0 0 0-.193.063v.002c-.001.005.004.007.007.015a.107.107 0 0 0 .122.048.102.102 0 0 0 .064-.128zm-8.631 3.883a.11.11 0 0 0-.135.049.1.1 0 0 0 .044.132.093.093 0 0 0 .132-.044.101.101 0 0 0-.041-.138c0 .001 0 0 0 0zm1.06-2.17a.11.11 0 0 0-.135.049.1.1 0 0 0 .044.132c.049.027.11.009.137-.04v-.001a.11.11 0 0 0-.046-.14zm1.06-2.17a.11.11 0 0 0-.135.048.1.1 0 0 0 .044.133.094.094 0 0 0 .134-.05.098.098 0 0 0-.043-.132zm11.748 1.34a.1.1 0 0 0-.14-.014l-.003.002a.107.107 0 0 0-.011.143.1.1 0 0 0 .14.009l.004-.004a.097.097 0 0 0 .01-.136zm-1.599-1.813a.103.103 0 0 0-.142-.012.1.1 0 0 0-.01.142c.002 0 .003.002.004.003.036.04.097.044.137.01a.103.103 0 0 0 .011-.143zm-7.094 4.962a.098.098 0 0 0-.089-.107h-.003l-.006-.002a.102.102 0 0 0-.101.094.098.098 0 0 0 .089.107h.003a.123.123 0 0 0 .042-.01.09.09 0 0 0 .065-.082zm.055-2.522a.11.11 0 0 0-.11.098c.002.055.046.1.1.103a.098.098 0 0 0 .102-.093v-.002a.1.1 0 0 0-.092-.106zm.15-2.408a.1.1 0 0 0-.107.092.1.1 0 0 0 .092.107.1.1 0 0 0 .107-.092.097.097 0 0 0-.088-.106l-.004-.001zm-8.572.865a.095.095 0 0 0-.134-.009l-.005.005a.098.098 0 0 0-.009.137.099.099 0 0 0 .14.013l.002-.002a.103.103 0 0 0 .006-.144zm18.185-.187a.174.174 0 0 0-.242-.019.173.173 0 0 0 .221.266.18.18 0 0 0 .021-.247zm-8.685 14.75a.176.176 0 0 0-.189.156.172.172 0 0 0 .158.184.178.178 0 0 0 .19-.156.172.172 0 0 0-.159-.183zm.337-4.129a.171.171 0 1 0-.026.342.171.171 0 0 0 .026-.342zm.343-4.128a.17.17 0 1 0-.031.34.176.176 0 0 0 .189-.156.172.172 0 0 0-.158-.184zm.337-4.129a.17.17 0 0 0-.183.154v.004a.171.171 0 1 0 .187-.158h-.004zM44.33 49.8a.168.168 0 0 0-.236-.027l-.003.003a.181.181 0 0 0-.021.248c.062.07.17.078.242.018a.169.169 0 0 0 .023-.237l-.005-.005zm15.107 2.626a.173.173 0 1 0-.111.218c.09-.03.14-.127.111-.218zm-1.264-3.942a.171.171 0 0 0-.214-.113l-.004.001a.176.176 0 0 0-.111.219.173.173 0 0 0 .33-.107zM47.966 55.36a.165.165 0 0 0-.223.066l-.005.01a.167.167 0 0 0 .07.226c.085.044.19.011.233-.074a.165.165 0 0 0-.066-.224l-.009-.004zm1.895-3.688a.173.173 0 0 0-.154.31c.083.042.184.009.226-.073l.002-.003a.174.174 0 0 0-.074-.234zm1.892-3.683a.17.17 0 1 0 .074.234.173.173 0 0 0-.074-.234zm9.607 2.12a.164.164 0 0 0-.208-.102c-.003 0-.006.002-.008.003a.177.177 0 0 0-.106.22c.037.086.133.13.222.1a.17.17 0 0 0 .102-.218l-.002-.003zM48.191 60.933a.173.173 0 1 0-.148.311.173.173 0 0 0 .148-.311zm1.732-3.746a.182.182 0 0 0-.232.087.175.175 0 0 0 .084.225c.086.04.19.004.23-.082a.177.177 0 0 0-.082-.23zm1.725-3.743a.17.17 0 1 0-.14.309c.085.041.188.005.23-.081a.176.176 0 0 0-.09-.228zM53.38 49.7a.168.168 0 0 0-.223.08l-.001.003a.171.171 0 0 0 .084.225c.081.04.18.007.22-.074l.005-.01a.168.168 0 0 0-.085-.224zm3.78 6.947a.175.175 0 0 0-.18.166.172.172 0 0 0 .167.174.168.168 0 0 0 .179-.158v-.001a.178.178 0 0 0-.166-.18zm.17-4.125a.177.177 0 0 0-.181.166.17.17 0 0 0 .34.017v-.005a.168.168 0 0 0-.158-.178h-.002zm.16-4.122a.175.175 0 0 0-.18.165.173.173 0 0 0 .346.015.174.174 0 0 0-.165-.18zm-11.735 3.119a.167.167 0 0 0-.235-.01c-.002 0-.004.003-.006.004a.169.169 0 0 0-.011.239c.064.07.173.076.244.013a.172.172 0 0 0 .012-.243l-.004-.003zm3.033-2.799a.172.172 0 0 0-.252.233c.065.07.173.076.244.013a.172.172 0 0 0 .012-.242l-.004-.004zm12.46-.596a.126.126 0 0 0-.14-.108h-.002a.13.13 0 1 0 .029.26.13.13 0 0 0 .114-.152zM49.84 54.042a.124.124 0 0 0-.182.024.13.13 0 1 0 .182-.024zm1.865-2.492a.127.127 0 0 0-.182.023.13.13 0 0 0 .207.158.13.13 0 0 0-.025-.181zm1.864-2.493a.13.13 0 1 0 .025.182.133.133 0 0 0-.025-.182zm2.691 6.257a.127.127 0 0 0-.157.09v.001a.135.135 0 0 0 .09.158.13.13 0 0 0 .158-.092.123.123 0 0 0-.09-.157zm.767-3.015a.124.124 0 0 0-.15.09l-.002.004a.127.127 0 0 0 .091.157c.07.015.14-.027.16-.096a.129.129 0 0 0-.098-.154h-.001zm.774-3.018a.137.137 0 0 0-.16.097.123.123 0 0 0 .088.15l.006.002a.123.123 0 0 0 .155-.082c.001-.004.001-.007.003-.01a.127.127 0 0 0-.09-.157H57.8zm-11.053-.963a.124.124 0 0 0-.172-.049.127.127 0 0 0-.05.172c0 .003.003.006.004.008.037.06.115.08.175.044a.128.128 0 0 0 .043-.175zm11.945.58a.071.071 0 0 0-.063.128l.006.003a.073.073 0 0 0 .092-.04.072.072 0 0 0-.035-.09zm.621-1.43l-3.164 3.553a.109.109 0 0 0-.153-.006l-.007.006a.106.106 0 0 0-.012.15l.008.008c.043.047.116.05.163.007a.113.113 0 0 0 .007-.16l-.005-.005 3.163-3.552zm2.021-1.964a.118.118 0 0 0-.166-.001.113.113 0 0 0-.007.16l.006.005c.041.044.11.047.153.007l.007-.007a2.316 2.316 0 0 0-3.158 3.388l3.165-3.552z" opacity=".51"/>
            <path fill="#FFF" fill-rule="nonzero" d="M78.377 50.145a.164.164 0 0 0-.233-.04.162.162 0 0 0-.04.226h.002a.164.164 0 0 0 .233.041.162.162 0 0 0 .038-.227zm-14.274 6.981a.168.168 0 0 0-.194.135.16.16 0 0 0 .137.188.168.168 0 0 0 .194-.135.165.165 0 0 0-.137-.188zm.669-3.967a.165.165 0 0 0-.188.137.167.167 0 0 0 .329.06.178.178 0 0 0-.141-.197zm.675-3.964a.178.178 0 0 0-.196.14.16.16 0 0 0 .128.187l.009.001a.163.163 0 0 0 .192-.128l.001-.006a.169.169 0 0 0-.134-.194zm7.271 5.902a.169.169 0 1 0-.132.2l.003-.001a.17.17 0 0 0 .13-.199zm-.896-3.919a.169.169 0 1 0-.132.199h.003a.17.17 0 0 0 .13-.199zm-14.37 1.37a.16.16 0 0 0-.227.059.162.162 0 0 0 .05.223l.002.001c.077.05.18.027.23-.05a.177.177 0 0 0-.054-.232zm2.14-3.4a.165.165 0 0 0-.23.048v.002a.168.168 0 0 0 .049.23c.08.045.181.022.233-.054a.162.162 0 0 0-.052-.225zm16.908 4.98a.148.148 0 0 0-.28.094.148.148 0 0 0 .28-.094zm-1.13-3.405a.148.148 0 1 0-.094.187.144.144 0 0 0 .095-.18l-.001-.007zm-14.004 2.225a.148.148 0 0 0-.199.066v.002a.143.143 0 0 0 .057.194l.005.003a.157.157 0 0 0 .205-.066.155.155 0 0 0-.068-.2zm1.609-3.206a.148.148 0 0 0-.198.065l-.001.003a.143.143 0 0 0 .057.194l.005.003c.072.037.16.009.198-.062a.152.152 0 0 0-.061-.203zm6.181 3.465a.156.156 0 0 0-.158.143.146.146 0 0 0 .137.156.15.15 0 0 0 .161-.135.154.154 0 0 0-.14-.164zm.26-3.578a.156.156 0 0 0-.158.142.147.147 0 0 0 .137.156.142.142 0 0 0 .155-.128v-.009a.15.15 0 0 0-.133-.161zm9.896-1.742a.096.096 0 0 0-.12-.062h-.003a.097.097 0 0 0-.063.129c.016.05.07.078.12.062l.003-.001a.102.102 0 0 0 .063-.128zm-3.89 9.963a.176.176 0 0 0-.189.156.172.172 0 0 0 .158.184.178.178 0 0 0 .19-.156.172.172 0 0 0-.158-.184zm.338-4.13a.171.171 0 1 0-.026.342.171.171 0 0 0 .026-.341zm.343-4.127a.17.17 0 0 0-.038.339h.006a.176.176 0 0 0 .19-.155.173.173 0 0 0-.158-.184zm-16.073.342a.173.173 0 0 0-.266.221c.064.072.172.08.247.02a.176.176 0 0 0 .019-.241zm8.06 3.887a.168.168 0 0 0-.227.073l-.002.003a.173.173 0 0 0 .068.232c.086.04.187.007.234-.074a.173.173 0 0 0-.074-.234zm1.892-3.683a.165.165 0 0 0-.223.067l-.005.01a.167.167 0 0 0 .07.226c.085.044.19.01.233-.074a.165.165 0 0 0-.066-.224l-.01-.005zm.226 5.572a.173.173 0 1 0-.149.312.173.173 0 0 0 .149-.312zm1.732-3.745a.182.182 0 0 0-.233.087.175.175 0 0 0 .085.225c.086.04.189.004.23-.082a.177.177 0 0 0-.082-.23zm1.724-3.743a.17.17 0 1 0-.14.309c.086.04.189.004.23-.082a.177.177 0 0 0-.09-.227zm5.513 3.202a.175.175 0 0 0-.18.166.172.172 0 0 0 .167.174.168.168 0 0 0 .178-.158v-.002a.178.178 0 0 0-.165-.18zm-14.439-2.33a.167.167 0 0 0-.235-.01c-.002 0-.003.003-.005.004a.169.169 0 0 0-.012.239c.065.07.173.075.244.013a.172.172 0 0 0 .012-.242l-.004-.004zm7.119-.274a.124.124 0 0 0-.174.014l-.008.01a.13.13 0 1 0 .182-.024zm6.42 1.271a.127.127 0 0 0-.157.09v.001a.135.135 0 0 0 .09.158.13.13 0 0 0 .158-.091.123.123 0 0 0-.083-.155l-.008-.003z" opacity=".51"/>
            <path fill="#002452" fill-rule="nonzero" d="M237.167 99.757s-8.554 4.18-27.546-1.747a110.913 110.913 0 0 1-13.661-5.335l6.17-51.64a28.403 28.403 0 0 1 2.379-3.037s-.005-.005.005-.005c.162-.182.324-.359.486-.531a.697.697 0 0 1 .086-.091c.167-.172.33-.344.491-.506.354-.355.699-.684 1.043-.998.167-.151.339-.303.506-.445.501-.44.987-.825 1.437-1.164l.446-.33a23.64 23.64 0 0 1 1.858-1.214c.202-.116.384-.218.541-.304a3.671 3.671 0 0 1-.111-.303c.045-.03.096-.066.142-.102a50.648 50.648 0 0 1 14.46 15.105c6.313 10.067 4.663 13.783 8.09 19.715 3.421 5.932 14.127 18.683 3.178 32.932z"/>
            <path fill="#002452" fill-rule="nonzero" d="M219.234 86.87c-1.286 6.478-5.098 9.708-9.613 11.14-6.089 1.934-13.459.613-17.66-.374-7.324-1.726-8.757.713-15.074 2.44-6.317 1.72-12.715-1.038-12.715-1.038l-5.057-22.89s9.066-.313 18.633-.905c9.602-.593 16.222-4.885 19.234-21.391a32.961 32.961 0 0 1 5.148-12.817 28.403 28.403 0 0 1 2.379-3.037s-.005-.005.005-.005c.162-.182.324-.359.486-.531a.697.697 0 0 1 .086-.091c.167-.172.33-.344.491-.506.354-.36.699-.689 1.043-.998.167-.151.339-.303.506-.445.501-.44.987-.825 1.437-1.164l.446-.33a23.64 23.64 0 0 1 1.858-1.214c.202-.116.384-.218.541-.304a16.36 16.36 0 0 0 1.19 2.384c4.53 7.557 3.199 10.397 3.199 10.397l3.29-.916c1.802 11.789 2.323 31.61.147 42.594zM141.247 184.985H125.98s-7.967 7.479-16.503 11.137c-8.535 3.658-11.097 8.597-11.097 8.597l49.94-.001-7.074-19.733"/>
            <path fill="#002452" fill-rule="nonzero" d="M182.632 184.985H166.4s-7 7.478-15.536 11.137c-8.536 3.658-11.097 8.597-11.097 8.597l49.94-.001-7.075-19.733"/>
            <path fill="#1C2868" fill-rule="nonzero" d="M191.304 16.935c.968 1.563 3.138 1.301 3.917-.418.094-.208-.217-.326-.311-.12a1.857 1.857 0 0 1-3.34.312c-.115-.186-.38.04-.266.226z"/>
            <path fill="#EF9F2A" d="M237.798 30.324c-1.645-2.793-4.201-4.59-6.673-6.588a27.18 27.18 0 0 1-6.509-7.885c-.429-1.374-.892-3.019-1.444-5.05-3.022-11.11-14.487-11.55-22.752-9.42-8.17 2.106-10.124 7.4-7.836 13.191a67.89 67.89 0 0 0 .602-2.915l.086-.491s5.64 5.502 12.392 4.788c3.093-.324 4.843.19 5.806 1.022a5.35 5.35 0 0 1 .445 3.256c-.255 1.59-1.025 2.997-1.678 4.451-.833 1.857-1.428 3.692-1.106 5.744.803 5.117 7.085 10.13 3.402 15.386-.234.334.315.651.547.32 4.457-6.362-4.727-12.208-3.192-18.712.268-1.002.64-1.974 1.11-2.899-.15.506-.268 1.02-.354 1.54-.374 2.33-.131 5.26 1.954 8.732 4.53 7.557 3.2 10.397 3.2 10.397l22.924-6.398s1.159-5.153-5.507-11.196c-4.398-3.987-6.049-5.19-7.53-8.733a26.646 26.646 0 0 0 2.064 2.61c2.173 2.41 5.021 4.025 7.291 6.321a14.608 14.608 0 0 1 4.17 10.997c-.014.408.618.407.633 0a15.39 15.39 0 0 0-2.045-8.468z"/>
        </g>
    </g>
</svg>
