<svg xmlns="http://www.w3.org/2000/svg" width="136" height="40" viewBox="0 0 136 40">
    <g fill="none" fill-rule="evenodd">
        <rect width="136" height="40" fill="#000" rx="5.365"/>
        <g fill="#FFF" fill-rule="nonzero">
            <path d="M25.215 20.313a5.145 5.145 0 0 1 2.479-4.325 5.343 5.343 0 0 0-4.199-2.247c-1.766-.184-3.479 1.046-4.38 1.046-.917 0-2.303-1.028-3.795-.998a5.599 5.599 0 0 0-4.706 2.842c-2.034 3.488-.517 8.614 1.432 11.433.975 1.38 2.115 2.923 3.606 2.868 1.46-.06 2.004-.921 3.766-.921 1.745 0 2.256.921 3.777.886 1.566-.025 2.553-1.386 3.493-2.78.701-.984 1.24-2.07 1.598-3.221a4.98 4.98 0 0 1-3.071-4.583zM22.341 11.886a5.043 5.043 0 0 0 1.173-3.636 5.232 5.232 0 0 0-3.375 1.729 4.8 4.8 0 0 0-1.203 3.501 4.329 4.329 0 0 0 3.405-1.594z"/>
            <g>
                <path d="M43.66 27.437h-4.98l-1.196 3.496h-2.109l4.717-12.935h2.19L47 30.933h-2.145l-1.194-3.496zm-4.464-1.613h3.947l-1.946-5.674h-.054l-1.947 5.674zM57.185 26.218c0 2.931-1.584 4.814-3.974 4.814a3.236 3.236 0 0 1-2.997-1.65h-.045v4.671h-1.955v-12.55h1.892v1.568h.036a3.386 3.386 0 0 1 3.033-1.667c2.417 0 4.01 1.892 4.01 4.814zm-2.01 0c0-1.909-.996-3.164-2.516-3.164-1.494 0-2.499 1.282-2.499 3.164 0 1.9 1.005 3.173 2.499 3.173 1.52 0 2.517-1.246 2.517-3.173zM67.668 26.218c0 2.931-1.584 4.814-3.975 4.814a3.236 3.236 0 0 1-2.996-1.65h-.046v4.671h-1.955v-12.55h1.893v1.568h.036a3.386 3.386 0 0 1 3.032-1.667c2.418 0 4.011 1.892 4.011 4.814zm-2.01 0c0-1.909-.996-3.164-2.516-3.164-1.494 0-2.499 1.282-2.499 3.164 0 1.9 1.005 3.173 2.499 3.173 1.52 0 2.517-1.246 2.517-3.173zM74.596 27.33c.145 1.282 1.404 2.124 3.123 2.124 1.648 0 2.834-.842 2.834-1.999 0-1.004-.715-1.605-2.408-2.017l-1.693-.404c-2.399-.573-3.513-1.684-3.513-3.487 0-2.232 1.965-3.765 4.754-3.765 2.76 0 4.653 1.533 4.716 3.765h-1.973c-.118-1.29-1.196-2.07-2.771-2.07s-2.653.788-2.653 1.936c0 .914.689 1.453 2.373 1.865l1.439.35c2.68.627 3.794 1.693 3.794 3.585 0 2.42-1.947 3.936-5.043 3.936-2.897 0-4.853-1.48-4.98-3.82h2.001zM86.837 19.27v2.232h1.811v1.533h-1.811v5.2c0 .807.363 1.184 1.159 1.184.215-.004.43-.019.643-.045v1.524a5.42 5.42 0 0 1-1.086.09c-1.928 0-2.68-.718-2.68-2.547v-5.406h-1.385v-1.533h1.385v-2.231h1.964zM89.697 26.218c0-2.967 1.765-4.831 4.517-4.831 2.762 0 4.518 1.864 4.518 4.831 0 2.976-1.747 4.832-4.518 4.832-2.77 0-4.517-1.856-4.517-4.832zm7.043 0c0-2.035-.942-3.236-2.526-3.236-1.584 0-2.525 1.21-2.525 3.236 0 2.044.941 3.236 2.525 3.236s2.526-1.192 2.526-3.236zM100.344 21.502h1.865v1.606h.045a2.269 2.269 0 0 1 2.291-1.704c.225-.001.45.023.67.072v1.81a2.758 2.758 0 0 0-.879-.116 1.98 1.98 0 0 0-1.522.62c-.392.418-.58.984-.515 1.55v5.593h-1.955v-9.43zM114.229 28.163c-.263 1.712-1.947 2.887-4.102 2.887-2.77 0-4.49-1.838-4.49-4.787 0-2.958 1.729-4.876 4.408-4.876 2.635 0 4.292 1.792 4.292 4.651v.664h-6.726v.117a2.442 2.442 0 0 0 .672 1.908c.49.51 1.178.789 1.89.763a2.157 2.157 0 0 0 2.2-1.327h1.856zm-6.61-2.814h4.762a2.255 2.255 0 0 0-.64-1.703 2.302 2.302 0 0 0-1.696-.69 2.423 2.423 0 0 0-1.716.695c-.456.45-.71 1.061-.71 1.698z"/>
            </g>
            <g>
                <path d="M38.95 8.261a2.792 2.792 0 0 1 2.216.852c.572.599.843 1.42.738 2.237 0 1.986-1.083 3.127-2.953 3.127h-2.267V8.26h2.267zm-1.292 5.337h1.184a1.983 1.983 0 0 0 1.572-.63 1.941 1.941 0 0 0 .498-1.606 1.947 1.947 0 0 0-.506-1.594c-.4-.43-.974-.66-1.564-.628h-1.184v4.458zM43.006 12.13a2.215 2.215 0 0 1 1.05-2.1 2.263 2.263 0 0 1 2.367 0 2.215 2.215 0 0 1 1.05 2.1 2.216 2.216 0 0 1-1.049 2.103 2.263 2.263 0 0 1-2.369 0 2.216 2.216 0 0 1-1.05-2.103zm3.506 0c0-1.017-.461-1.612-1.27-1.612-.813 0-1.27.595-1.27 1.612 0 1.024.457 1.614 1.27 1.614.809 0 1.27-.594 1.27-1.614zM53.412 14.477h-.97l-.978-3.455h-.074l-.975 3.455h-.96l-1.307-4.69h.949l.848 3.578h.07l.974-3.579h.897l.974 3.58h.074l.844-3.58h.935zM55.811 9.786h.9v.745h.07a1.42 1.42 0 0 1 1.414-.835c.467-.035.924.142 1.243.482.319.34.465.804.396 1.262v3.037H58.9v-2.804c0-.754-.33-1.129-1.022-1.129a1.092 1.092 0 0 0-.841.337 1.07 1.07 0 0 0-.29.852v2.744h-.935v-4.69zM61.324 7.955h.935v6.522h-.935zM63.558 12.13a2.216 2.216 0 0 1 1.051-2.1 2.263 2.263 0 0 1 2.367 0 2.216 2.216 0 0 1 1.05 2.1 2.216 2.216 0 0 1-1.049 2.103 2.264 2.264 0 0 1-2.37 0 2.216 2.216 0 0 1-1.049-2.103zm3.507 0c0-1.017-.462-1.612-1.271-1.612-.813 0-1.27.595-1.27 1.612 0 1.024.457 1.614 1.27 1.614.81 0 1.27-.594 1.27-1.614zM69.01 13.15c0-.844.636-1.33 1.763-1.4l1.283-.073v-.405c0-.495-.331-.775-.97-.775-.522 0-.883.19-.987.521h-.905c.095-.805.86-1.322 1.935-1.322 1.188 0 1.858.585 1.858 1.576v3.205h-.9v-.66h-.074c-.306.482-.85.763-1.423.737a1.44 1.44 0 0 1-1.104-.355 1.41 1.41 0 0 1-.475-1.049zm3.046-.4v-.393l-1.157.074c-.652.043-.948.263-.948.676 0 .422.37.668.878.668.301.03.602-.062.833-.255.231-.194.373-.472.394-.77zM74.215 12.13c0-1.483.77-2.422 1.967-2.422a1.564 1.564 0 0 1 1.452.823h.07V7.955h.935v6.522h-.896v-.741h-.074c-.303.525-.876.84-1.487.818-1.205 0-1.967-.939-1.967-2.424zm.966 0c0 .994.474 1.593 1.266 1.593.788 0 1.275-.607 1.275-1.59 0-.977-.493-1.593-1.275-1.593-.787 0-1.266.603-1.266 1.59zM82.507 12.13a2.215 2.215 0 0 1 1.05-2.1 2.263 2.263 0 0 1 2.367 0 2.215 2.215 0 0 1 1.05 2.1 2.216 2.216 0 0 1-1.049 2.103 2.263 2.263 0 0 1-2.369 0 2.216 2.216 0 0 1-1.05-2.103zm3.506 0c0-1.017-.461-1.612-1.27-1.612-.813 0-1.27.595-1.27 1.612 0 1.024.457 1.614 1.27 1.614.809 0 1.27-.594 1.27-1.614zM88.229 9.786h.9v.745h.07a1.42 1.42 0 0 1 1.413-.835c.467-.035.925.142 1.244.482.319.34.465.804.396 1.262v3.037h-.935v-2.804c0-.754-.33-1.129-1.022-1.129a1.092 1.092 0 0 0-.841.337 1.07 1.07 0 0 0-.29.852v2.744h-.935v-4.69zM97.535 8.618v1.19h1.026v.78h-1.026v2.411c0 .492.204.707.67.707.118 0 .237-.008.356-.022v.771c-.168.03-.338.046-.509.048-1.04 0-1.453-.362-1.453-1.267v-2.649h-.752v-.78h.752V8.619h.936zM99.838 7.955h.926v2.585h.074a1.46 1.46 0 0 1 1.445-.84c.464-.025.915.156 1.23.494.316.338.463.798.401 1.254v3.029h-.936v-2.8c0-.75-.352-1.129-1.013-1.129a1.113 1.113 0 0 0-.875.32 1.09 1.09 0 0 0-.317.87v2.739h-.935V7.955zM109.365 13.21a1.923 1.923 0 0 1-2.052 1.357 2.162 2.162 0 0 1-1.66-.709 2.117 2.117 0 0 1-.529-1.712 2.15 2.15 0 0 1 .528-1.718 2.194 2.194 0 0 1 1.656-.732c1.319 0 2.114.891 2.114 2.364v.323h-3.345v.052c-.03.348.09.693.33.948.24.256.579.4.931.396.458.054.903-.17 1.127-.569h.9zm-3.288-1.511h2.392a1.125 1.125 0 0 0-.31-.864 1.149 1.149 0 0 0-.856-.351 1.218 1.218 0 0 0-.872.351c-.23.229-.359.54-.354.864z"/>
            </g>
        </g>
    </g>
</svg>
