<svg xmlns="http://www.w3.org/2000/svg" width="136" height="40" viewBox="0 0 136 40">
    <defs>
        <linearGradient id="a" x1="60.655%" x2="27.324%" y1="4.962%" y2="71.9%">
            <stop offset="0%" stop-color="#00A0FF"/>
            <stop offset=".66%" stop-color="#00A1FF"/>
            <stop offset="26.01%" stop-color="#00BEFF"/>
            <stop offset="51.22%" stop-color="#00D2FF"/>
            <stop offset="76.04%" stop-color="#00DFFF"/>
            <stop offset="100%" stop-color="#00E3FF"/>
        </linearGradient>
        <linearGradient id="b" x1="107.583%" x2="-130.477%" y1="49.994%" y2="49.994%">
            <stop offset="0%" stop-color="#FFE000"/>
            <stop offset="40.87%" stop-color="#FFBD00"/>
            <stop offset="77.54%" stop-color="#FFA500"/>
            <stop offset="100%" stop-color="#FF9C00"/>
        </linearGradient>
        <linearGradient id="c" x1="86.253%" x2="-50.14%" y1="30.217%" y2="139.064%">
            <stop offset="0%" stop-color="#FF3A44"/>
            <stop offset="100%" stop-color="#C31162"/>
        </linearGradient>
        <linearGradient id="d" x1="-18.81%" x2="42.093%" y1="-14.065%" y2="34.54%">
            <stop offset="0%" stop-color="#32A071"/>
            <stop offset="6.85%" stop-color="#2DA771"/>
            <stop offset="47.62%" stop-color="#15CF74"/>
            <stop offset="80.09%" stop-color="#06E775"/>
            <stop offset="100%" stop-color="#00F076"/>
        </linearGradient>
    </defs>
    <g fill="none" fill-rule="nonzero">
        <path fill="#000" d="M130.963 40H5.037C2.267 40 0 37.75 0 35V5c0-2.75 2.267-5 5.037-5h125.926C133.733 0 136 2.25 136 5v30c0 2.75-2.267 5-5.037 5z"/>
        <g fill="#FFF" stroke="#FFF" stroke-width=".5">
            <path d="M47.497 10.643c0 .838-.25 1.505-.749 2.003-.567.592-1.308.888-2.217.888-.871 0-1.613-.3-2.221-.9-.61-.601-.914-1.345-.914-2.233 0-.889.304-1.633.914-2.233.608-.601 1.35-.901 2.22-.901.433 0 .847.084 1.24.251.393.168.707.391.943.67l-.53.528c-.4-.475-.95-.712-1.653-.712-.636 0-1.185.222-1.649.666-.463.444-.695 1.021-.695 1.73 0 .709.232 1.286.695 1.73a2.303 2.303 0 0 0 1.649.666c.674 0 1.236-.223 1.686-.67.292-.291.46-.696.506-1.215H44.53v-.721h2.924c.03.157.043.308.043.453zM52.135 8.137h-2.748v1.902h2.478v.721h-2.478v1.902h2.748v.738H48.61v-6h3.524zM55.405 13.4h-.776V8.137h-1.686V7.4h4.148v.737h-1.686zM60.091 13.4v-6h.776v6zM64.306 13.4h-.775V8.137h-1.686V7.4h4.147v.737h-1.686zM73.843 12.625c-.593.606-1.33.909-2.213.909-.882 0-1.62-.303-2.212-.909-.593-.606-.889-1.348-.889-2.225s.296-1.619.89-2.225c.592-.606 1.33-.91 2.211-.91.878 0 1.614.305 2.21.914.595.609.893 1.349.893 2.221 0 .877-.297 1.619-.89 2.225zm-3.852-.503c.446.45.993.674 1.64.674.646 0 1.193-.225 1.639-.674.447-.45.67-1.024.67-1.722s-.223-1.272-.67-1.722a2.218 2.218 0 0 0-1.64-.674c-.646 0-1.193.225-1.64.674-.445.45-.67 1.024-.67 1.722s.225 1.272.67 1.722zM75.821 13.4v-6h.944l2.933 4.667h.033l-.033-1.156V7.4h.775v6h-.81l-3.068-4.894h-.034l.034 1.156V13.4z"/>
        </g>
        <path fill="#FFF" d="M68.303 21.44c-2.366 0-4.295 1.765-4.295 4.196 0 2.416 1.929 4.196 4.295 4.196 2.368 0 4.297-1.78 4.297-4.196-.001-2.43-1.93-4.196-4.297-4.196zm0 6.74c-1.297 0-2.414-1.048-2.414-2.543 0-1.51 1.118-2.543 2.414-2.543 1.297 0 2.415 1.033 2.415 2.543 0 1.494-1.118 2.543-2.415 2.543zm-9.371-6.74c-2.367 0-4.296 1.765-4.296 4.196 0 2.416 1.93 4.196 4.296 4.196 2.367 0 4.296-1.78 4.296-4.196 0-2.43-1.929-4.196-4.296-4.196zm0 6.74c-1.297 0-2.415-1.048-2.415-2.543 0-1.51 1.119-2.543 2.415-2.543 1.297 0 2.415 1.033 2.415 2.543 0 1.494-1.118 2.543-2.415 2.543zM47.785 22.73v1.78h4.345c-.13 1-.47 1.732-.99 2.24-.631.62-1.62 1.303-3.355 1.303-2.674 0-4.765-2.114-4.765-4.736s2.09-4.736 4.765-4.736c1.443 0 2.496.556 3.274 1.271l1.281-1.256c-1.087-1.017-2.529-1.795-4.555-1.795-3.664 0-6.744 2.924-6.744 6.516s3.08 6.516 6.744 6.516c1.977 0 3.47-.637 4.636-1.828 1.199-1.176 1.572-2.83 1.572-4.164 0-.413-.032-.795-.097-1.112h-6.111zm45.589 1.382c-.356-.937-1.443-2.67-3.664-2.67-2.204 0-4.036 1.7-4.036 4.195 0 2.352 1.816 4.196 4.247 4.196 1.96 0 3.096-1.176 3.567-1.86l-1.46-.954c-.485.7-1.15 1.16-2.107 1.16-.956 0-1.637-.429-2.075-1.271l5.722-2.32-.194-.476zm-5.836 1.399a2.321 2.321 0 0 1 2.238-2.448c.745 0 1.377.366 1.589.89l-3.827 1.558zm-4.652 4.068h1.88V17.246h-1.88v12.332zm-3.08-7.2h-.065c-.422-.493-1.233-.938-2.253-.938-2.14 0-4.101 1.844-4.101 4.213 0 2.352 1.96 4.18 4.101 4.18 1.021 0 1.831-.445 2.253-.953h.064v.603c0 1.605-.875 2.464-2.285 2.464-1.15 0-1.864-.81-2.156-1.494l-1.637.668c.47 1.112 1.717 2.479 3.793 2.479 2.205 0 4.07-1.272 4.07-4.371v-7.533h-1.784v.683zM77.65 28.18c-1.297 0-2.383-1.065-2.383-2.527 0-1.479 1.086-2.56 2.383-2.56 1.28 0 2.285 1.081 2.285 2.56 0 1.462-1.005 2.527-2.285 2.527zm24.532-10.934h-4.498v12.332h1.876v-4.672h2.621c2.081 0 4.128-1.477 4.128-3.83 0-2.352-2.046-3.83-4.127-3.83zm.049 5.944h-2.67v-4.228h2.67c1.403 0 2.2 1.14 2.2 2.114a2.17 2.17 0 0 1-2.2 2.114zm11.603-1.771c-1.36 0-2.767.587-3.35 1.888l1.667.682c.356-.682 1.02-.905 1.715-.905.971 0 1.958.571 1.974 1.586v.128c-.34-.19-1.068-.476-1.958-.476-1.796 0-3.625.968-3.625 2.776 0 1.65 1.473 2.713 3.123 2.713 1.262 0 1.958-.556 2.395-1.207h.064v.952h1.814v-4.728c0-2.188-1.668-3.41-3.819-3.41zm-.227 6.758c-.614 0-1.472-.302-1.472-1.047 0-.952 1.068-1.317 1.99-1.317.825 0 1.214.174 1.715.412-.145 1.143-1.149 1.952-2.233 1.952zm10.648-6.489l-2.152 5.347h-.064l-2.234-5.347h-2.023l3.35 7.473-1.91 4.157h1.958l5.163-11.63h-2.088zm-16.91 7.89h1.877V17.246h-1.877v12.332z"/>
        <path fill="url(#a)" d="M1.433.546C1.143.86.97 1.344.97 1.973v22.456c0 .63.172 1.114.462 1.427l.074.073 12.362-12.58v-.296L1.507.473l-.074.073z" transform="translate(8.852 7.2)"/>
        <path fill="url(#b)" d="M17.99 17.544l-4.12-4.195v-.296l4.12-4.194.093.054 4.883 2.823c1.394.806 1.394 2.125 0 2.932l-4.883 2.823-.093.053z" transform="translate(8.852 7.2)"/>
        <path fill="url(#c)" d="M18.083 17.49l-4.215-4.289L1.433 25.856c.459.495 1.218.556 2.074.063l14.576-8.429" transform="translate(8.852 7.2)"/>
        <path fill="url(#d)" d="M18.083 8.912L3.507.484C2.65-.01 1.892.052 1.433.547l12.436 12.655 4.214-4.29z" transform="translate(8.852 7.2)"/>
        <g fill="#000">
            <path d="M26.843 24.596L12.359 32.97c-.81.469-1.535.437-2 .012l-.074.075.074.073c.465.426 1.19.458 2-.011l14.576-8.428-.092-.095z" opacity=".2"/>
            <path d="M10.285 32.908c-.29-.313-.462-.799-.462-1.427v.148c0 .629.172 1.114.462 1.427l.074-.075-.074-.073z" opacity=".12"/>
        </g>
        <path fill="#000" d="M31.818 21.719l-4.975 2.877.092.094 4.883-2.823c.698-.403 1.046-.934 1.046-1.465-.06.48-.414.95-1.046 1.317z" opacity=".12"/>
        <path fill="#FFF" d="M12.359 7.833l19.459 11.25c.633.366.987.837 1.046 1.318 0-.531-.348-1.063-1.046-1.466l-19.46-11.25c-1.394-.807-2.535-.137-2.535 1.488v.148c0-1.624 1.14-2.295 2.536-1.488z" opacity=".25"/>
    </g>
</svg>
