<?xml version="1.0" encoding="UTF-8"?>
<svg width="18px" height="18px" viewBox="0 0 18 18" version="1.1" xmlns="http://www.w3.org/2000/svg" xmlns:xlink="http://www.w3.org/1999/xlink">
    <title>AD53E104-F06C-48E3-8F49-8749F9ECB60C</title>
    <g id="5.-Account" stroke="none" stroke-width="1" fill="none" fill-rule="evenodd" stroke-linecap="round" stroke-linejoin="round">
        <g id="1.5-Verification-Code" transform="translate(-522.000000, -875.000000)" stroke="#7D96B3" stroke-width="1.5">
            <g id="Group-3" transform="translate(398.000000, 876.000000)">
                <g id="bin-1" transform="translate(125.000000, 0.000000)">
                    <line x1="0.363636364" y1="2.54545455" x2="15.6363636" y2="2.54545455" id="Path"></line>
                    <path d="M9.63636364,0.363636364 L6.36363636,0.363636364 C5.76114391,0.363636364 5.27272727,0.852053 5.27272727,1.45454545 L5.27272727,2.54545455 L10.7272727,2.54545455 L10.7272727,1.45454545 C10.7272727,0.852053 10.2388561,0.363636364 9.63636364,0.363636364 Z" id="Path"></path>
                    <line x1="6.36363636" y1="11.8181818" x2="6.36363636" y2="6.36363636" id="Path"></line>
                    <line x1="9.63636364" y1="11.8181818" x2="9.63636364" y2="6.36363636" id="Path"></line>
                    <path d="M12.9927273,14.6356364 C12.9458085,15.2012599 12.4730207,15.6363636 11.9054545,15.6363636 L4.09527273,15.6363636 C3.52770658,15.6363636 3.0549188,15.2012599 3.008,14.6356364 L2,2.54545455 L14,2.54545455 L12.9927273,14.6356364 Z" id="Path"></path>
                </g>
            </g>
        </g>
    </g>
</svg>