<svg xmlns="http://www.w3.org/2000/svg" width="31" height="32" viewBox="0 0 31 32">
    <g fill="none" fill-rule="evenodd" stroke="#1565C0" stroke-linecap="round" stroke-linejoin="round" stroke-width="1.5" transform="translate(1 1)">
        <circle cx="8.667" cy="20.439" r="2"/>
        <circle cx="18.667" cy="18.439" r="2"/>
        <path d="M20.667 18.439V11c0-.616-.284-1.197-.77-1.576-.485-.38-1.118-.513-1.716-.364l-6 1c-.89.223-1.514 1.022-1.514 1.94v8.439"/>
        <path d="M28.667 28c0 1.105-.896 2-2 2h-24c-1.105 0-2-.895-2-2V2c0-1.105.895-2 2-2h20c.521 0 1.022.204 1.396.568l4 3.844c.386.376.604.893.604 1.432V28z"/>
    </g>
</svg>
