<svg xmlns="http://www.w3.org/2000/svg" width="32" height="32" viewBox="0 0 32 32">
    <g fill="none" fill-rule="evenodd" stroke="#1565C0" stroke-linecap="round" stroke-linejoin="round" stroke-width="1.5">
        <path d="M29.997 20h-2c-1.104 0-2 .895-2 2 0 3 4 3 4 6 0 1.105-.895 2-2 2h-2M17.997 30c2.21 0 4-1.79 4-4v-2c0-2.21-1.79-4-4-4v10zM7.997 22c0-1.105.896-2 2-2l1.514.007c1.356.034 2.437 1.145 2.434 2.502-.003 1.356-1.088 2.463-2.445 2.491 1.357.028 2.442 1.135 2.445 2.491.003 1.357-1.078 2.468-2.434 2.502H9.997c-1.104 0-2-.895-2-2" transform="translate(1 1)"/>
        <path d="M3 30H2c-1.105 0-2-.895-2-2V2C0 .895.895 0 2 0h14.17c.53 0 1.038.21 1.413.585l7.829 7.83c.375.375.585.883.585 1.413V16" transform="translate(1 1)"/>
        <path d="M25.997 10h-8c-1.104 0-2-.895-2-2V0" transform="translate(1 1)"/>
    </g>
</svg>
