<svg xmlns="http://www.w3.org/2000/svg" width="32" height="32" viewBox="0 0 32 32">
    <g fill="none" fill-rule="evenodd" stroke="#1565C0" stroke-linecap="round" stroke-linejoin="round" stroke-width="1.5">
        <path d="M1 16.004v-14c0-1.105.895-2 2-2h14.172c.53 0 1.039.211 1.413.587l7.83 7.828c.375.375.585.884.585 1.414v6.171" transform="translate(0 1)"/>
        <path d="M27 10.004h-8c-1.105 0-2-.895-2-2v-8M1 30.004L1 20.004M5 30.004L5 20.004M1 26.004L5 26.004M11 30.004L11 20.004M9 20.004L13 20.004M23 30.004L23 20.004 20 25.004 17 20.004 17 30.004M27 20.004v8c0 1.105.895 2 2 2h2" transform="translate(0 1)"/>
    </g>
</svg>
