<svg xmlns="http://www.w3.org/2000/svg" width="32" height="32" viewBox="0 0 32 32">
    <g fill="none" fill-rule="evenodd" stroke="#1565C0" stroke-linecap="round" stroke-linejoin="round" stroke-width="1.5">
        <path d="M-.001 25V2.004c0-1.105.895-2 2-2H16.17c.53 0 1.04.211 1.414.587l7.828 7.828c.375.375.586.884.586 1.414v6.171" transform="translate(1 1)"/>
        <path d="M25.999 10.004h-8c-1.105 0-2-.895-2-2v-8M5.999 20.004v8c0 1.105-.896 2-2 2h-2M9.999 30.004v-8c0-1.105.895-2 2-2 1.104 0 2 .895 2 2v8M9.999 26.004L13.999 26.004M25.999 30.004v-8c0-1.105.895-2 2-2 1.104 0 2 .895 2 2v8M25.999 26.004L29.999 26.004M17.999 20.004V23.4c0 2.35.696 4.65 2 6.605 1.304-1.956 2-4.254 2-6.605v-3.396" transform="translate(1 1)"/>
    </g>
</svg>
