<svg xmlns="http://www.w3.org/2000/svg" width="32" height="32" viewBox="0 0 32 32">
    <g fill="none" fill-rule="evenodd" stroke="#1565C0" stroke-linecap="round" stroke-linejoin="round" stroke-width="1.5">
        <path d="M9.997 29.997L9.997 19.997M9.997 19.997h1.5c1.381 0 2.5 1.12 2.5 2.5 0 1.381-1.119 2.5-2.5 2.5h-1.5M13.997 29.997L10.997 24.997M25.997 29.997L25.997 19.997M25.997 19.997h1.5c1.381 0 2.5 1.12 2.5 2.5 0 1.381-1.119 2.5-2.5 2.5h-1.5M29.997 29.997L26.997 24.997M17.997 29.997v-8c0-1.104.896-2 2-2 1.105 0 2 .896 2 2v8M17.997 25.997L21.997 25.997" transform="translate(1 1)"/>
        <path d="M5.997 29.997h-4c-1.104 0-2-.895-2-2v-26c0-1.104.896-2 2-2H16.17c.53 0 1.039.211 1.414.586l7.829 7.829c.375.375.585.883.585 1.413v6.172" transform="translate(1 1)"/>
        <path d="M25.997 9.997h-8c-1.104 0-2-.895-2-2v-8" transform="translate(1 1)"/>
    </g>
</svg>
