<svg xmlns="http://www.w3.org/2000/svg" width="31" height="32" viewBox="0 0 31 32">
    <g fill="none" fill-rule="evenodd" stroke="#1565C0" stroke-linecap="round" stroke-linejoin="round" stroke-width="1.5">
        <path d="M5 30.005H2c-1.105 0-2-.895-2-2v-26c0-1.104.895-2 2-2h14.172c.53 0 1.038.211 1.413.586l7.83 7.828c.375.375.585.884.585 1.414v6.172" transform="translate(1 1)"/>
        <path d="M26 10.005h-8c-1.105 0-2-.895-2-2v-8M9 30.005L9 20.005M9 20.005h1c1.657 0 3 1.343 3 3s-1.343 3-3 3H9M25 30.005L25 20.005M25 20.005h1c1.657 0 3 1.343 3 3s-1.343 3-3 3h-1M17 30.005L17 20.005M21 30.005L21 20.005M17 26.005L21 26.005" transform="translate(1 1)"/>
    </g>
</svg>
