<svg xmlns="http://www.w3.org/2000/svg" width="32" height="32" viewBox="0 0 32 32">
    <g fill="none" fill-rule="evenodd" stroke="#1565C0" stroke-linecap="round" stroke-linejoin="round" stroke-width="1.5">
        <path d="M5.999 29.997h-4c-1.105 0-2-.895-2-2v-26c0-1.104.895-2 2-2H16.17c.53 0 1.038.211 1.413.586l7.83 7.829c.374.375.585.883.585 1.413v6.172" transform="translate(1 1)"/>
        <path d="M25.999 9.997h-8c-1.105 0-2-.895-2-2v-8M9.999 29.997L9.999 19.997M13.999 29.997L9.999 24.997 13.999 19.997M21.999 29.997h-2c-1.105 0-2-.895-2-2v-6c0-1.104.895-2 2-2h2M17.999 25.997L21.999 25.997M25.999 19.997V23c0 1.105.895 2 2 2 1.104 0 2-.895 2-2v-3M27.999 24.997L27.999 29.997" transform="translate(1 1)"/>
    </g>
</svg>
