<svg xmlns="http://www.w3.org/2000/svg" xmlns:xlink="http://www.w3.org/1999/xlink" width="56" height="57" viewBox="0 0 56 57">
    <defs>
        <filter id="rd8r9qtlwa" width="100.9%" height="101.8%" x="-.4%" y="-1.3%" filterUnits="objectBoundingBox">
            <feOffset dy="-.5" in="SourceAlpha" result="shadowOffsetOuter1"/>
            <feComposite in="shadowOffsetOuter1" in2="SourceAlpha" operator="out" result="shadowOffsetOuter1"/>
            <feColorMatrix in="shadowOffsetOuter1" values="0 0 0 0 1 0 0 0 0 1 0 0 0 0 1 0 0 0 0.16 0"/>
        </filter>
        <rect id="gzw33fvu5b" width="56" height="56" x="0" y="0" rx="14"/>
    </defs>
    <g fill="none" fill-rule="evenodd">
        <g>
            <g>
                <g opacity=".405" transform="translate(-126 -691) translate(126 692)">
                    <use fill="#000" filter="url(#rd8r9qtlwa)" xlink:href="#gzw33fvu5b"/>
                    <use fill="#161616" fill-opacity=".94" xlink:href="#gzw33fvu5b"/>
                </g>
                <g fill="#FFF" transform="translate(-126 -691) translate(126 692) translate(16 16)">
                    <g fill-rule="nonzero">
                        <path d="M7.472.031c1.21-.141 2.468.203 3.43.953 1.144.87 1.848 2.282 1.85 3.72.005 2.34.004 4.68.001 7.02.002 1.167-.441 2.328-1.23 3.189-.83.923-2.036 1.495-3.277 1.548-1.246.07-2.509-.385-3.427-1.23-.977-.882-1.551-2.185-1.547-3.502-.004-2.314-.003-4.63-.001-6.944-.01-1.165.42-2.328 1.2-3.195.764-.864 1.854-1.432 3-1.559m-.17 1.545c-1.407.293-2.51 1.62-2.529 3.058-.01 2.361-.003 4.722-.003 7.083C4.736 13.21 5.873 14.62 7.34 14.9c.994.217 2.08-.072 2.834-.756.681-.603 1.084-1.503 1.081-2.414.003-2.288 0-4.576.002-6.863.043-1.12-.527-2.239-1.472-2.843-.722-.478-1.64-.64-2.485-.45z" transform="translate(4)"/>
                        <path d="M.28 8.671c.018-.566.758-.895 1.192-.535.439.324.267.922.3 1.386.04 1.314-.131 2.663.25 3.943.474 1.663 1.68 3.1 3.233 3.857 1.365.683 2.987.818 4.453.409 2.08-.57 3.788-2.3 4.328-4.387.287-1.004.204-2.057.217-3.087.003-.516-.007-1.032.003-1.548-.001-.43.43-.79.852-.715.377.046.668.41.642.787-.002 1.065.007 2.13-.006 3.194-.065 2.295-1.213 4.531-3.053 5.908-1.13.875-2.513 1.396-3.93 1.55-.003 1.43.005 2.862-.003 4.292.015.53-.624.913-1.085.65-.302-.145-.442-.492-.41-.813v-4.13c-1.653-.172-3.253-.869-4.472-2.003C1.22 16.01.295 13.922.277 11.809c0-1.046-.01-2.092.004-3.138z" transform="translate(4)"/>
                    </g>
                    <rect width="1.5" height="30" x="11" y="-3" rx=".75" transform="rotate(-45 11.75 12)"/>
                </g>
            </g>
        </g>
    </g>
</svg>
