<svg xmlns="http://www.w3.org/2000/svg" xmlns:xlink="http://www.w3.org/1999/xlink" width="56" height="57" viewBox="0 0 56 57">
    <defs>
        <filter id="4lou356gva" width="100.9%" height="101.8%" x="-.4%" y="-1.3%" filterUnits="objectBoundingBox">
            <feOffset dy="-.5" in="SourceAlpha" result="shadowOffsetOuter1"/>
            <feComposite in="shadowOffsetOuter1" in2="SourceAlpha" operator="out" result="shadowOffsetOuter1"/>
            <feColorMatrix in="shadowOffsetOuter1" values="0 0 0 0 1 0 0 0 0 1 0 0 0 0 1 0 0 0 0.16 0"/>
        </filter>
        <rect id="awsldgiqyb" width="56" height="56" x="0" y="0" rx="14"/>
    </defs>
    <g fill="none" fill-rule="evenodd">
        <g>
            <g>
                <g opacity=".405" transform="translate(-194 -691) translate(194 692)">
                    <use fill="#000" filter="url(#4lou356gva)" xlink:href="#awsldgiqyb"/>
                    <use fill="#161616" fill-opacity=".94" xlink:href="#awsldgiqyb"/>
                </g>
                <g fill="#FFF" transform="translate(-194 -691) translate(194 692) translate(16 16)">
                    <g fill-rule="nonzero">
                        <g>
                            <path d="M2.976.134c.308-.069.625-.088.94-.09 2.885.002 5.769.002 8.653 0 .518-.007 1.042.059 1.527.25 1.412.52 2.415 1.958 2.407 3.465.005 2.503.003 5.006 0 7.509.006 1.006-.414 2.005-1.142 2.7-.692.676-1.654 1.059-2.621 1.052-2.995.002-5.99.004-8.985 0-1.021-.001-2.03-.444-2.722-1.197-.641-.684-1.004-1.617-1-2.555C.029 9.064.033 6.86.03 4.655c.004-.652-.042-1.32.162-1.949C.567 1.43 1.673.406 2.976.134m.25 1.478C2.27 1.85 1.53 2.766 1.53 3.755c-.002 2.528-.004 5.057.001 7.586.007 1.163 1.055 2.194 2.217 2.181 3.02.004 6.039.005 9.058 0 1.182.003 2.23-1.07 2.2-2.253.001-2.505.003-5.01-.001-7.514-.004-.83-.522-1.626-1.27-1.983-.356-.19-.769-.239-1.168-.23-2.774.002-5.548 0-8.321 0-.342.002-.689-.016-1.022.07zM21.83 2.164c.428-.215.958-.208 1.377.023.479.252.792.781.786 1.322.003 2.667 0 5.335 0 8.002.02.569-.306 1.131-.817 1.385-.424.222-.952.214-1.375-.006-1.126-.563-2.252-1.123-3.377-1.69-.304-.144-.483-.507-.4-.836.086-.45.635-.723 1.044-.51 1.145.563 2.285 1.141 3.428 1.708V3.505c-1.14.566-2.276 1.142-3.418 1.705-.374.197-.882-.003-1.022-.402-.152-.36.041-.804.396-.957 1.126-.563 2.252-1.126 3.378-1.687z" transform="translate(0 4) translate(.96 .449)"/>
                        </g>
                    </g>
                    <rect width="1.5" height="30" x="12" y="-3" rx=".75" transform="rotate(-45 12.75 12)"/>
                </g>
            </g>
        </g>
    </g>
</svg>
