<svg xmlns="http://www.w3.org/2000/svg" width="24" height="24" viewBox="0 0 24 24">
    <g fill="none" fill-rule="evenodd">
        <g fill="#7D96B3" fill-rule="nonzero">
            <g>
                <g>
                    <g>
                        <g>
                            <g>
                                <g>
                                    <path d="M5.433 10.925c.714.583 1.549 1.02 2.44 1.263 1.032.284 2.133.31 3.179.08.937-.203 1.823-.622 2.586-1.201 1.868.916 3.422 2.458 4.341 4.324.35.702.61 1.448.778 2.214.072.36-.12.75-.449.913-.125.065-.266.095-.407.094H.882c-.185.004-.372-.05-.523-.158-.213-.15-.35-.401-.358-.66-.009-.155.041-.303.075-.451.422-1.722 1.34-3.319 2.614-4.552.796-.776 1.73-1.407 2.743-1.866zm6.434-9.578c.644.322 1.215.787 1.664 1.348.508.634.858 1.393 1.007 2.192.175.928.084 1.907-.269 2.784-.468 1.184-1.409 2.17-2.568 2.696-.758.348-1.604.497-2.435.437-.843-.058-1.67-.337-2.377-.801-.602-.394-1.119-.92-1.501-1.53-.438-.694-.698-1.497-.751-2.315-.058-.83.094-1.673.443-2.427.369-.806.957-1.509 1.684-2.015.715-.502 1.565-.81 2.436-.88.914-.08 1.849.097 2.667.511z" transform="translate(-1054 -180) translate(1024) translate(0 166) translate(24 8) translate(6 6) translate(2.636 2.5)"/>
                                </g>
                            </g>
                        </g>
                    </g>
                </g>
            </g>
        </g>
    </g>
</svg>
