<svg xmlns="http://www.w3.org/2000/svg" width="27" height="27" viewBox="0 0 27 27">
    <g fill="none" fill-rule="evenodd">
        <g fill="#002452">
            <g>
                <g>
                    <g transform="translate(-151 -954) translate(0 928) translate(136 11) translate(15 15)">
                        <path fill-rule="nonzero" d="M12.77 1.032c1.259-.147 2.568.212 3.568.991 1.19.904 1.922 2.374 1.925 3.869.005 2.434.003 4.868 0 7.302.002 1.213-.459 2.42-1.28 3.315-.862.96-2.116 1.556-3.407 1.61-1.296.073-2.61-.4-3.564-1.279-1.017-.917-1.614-2.272-1.61-3.642-.004-2.407-.002-4.814 0-7.221-.01-1.212.437-2.422 1.249-3.323.793-.9 1.927-1.49 3.12-1.622m-.178 1.607c-1.463.304-2.61 1.684-2.63 3.18-.01 2.456-.003 4.911-.003 7.366-.034 1.555 1.148 3.02 2.675 3.312 1.034.226 2.164-.074 2.947-.786.708-.627 1.127-1.564 1.124-2.511.004-2.379 0-4.759.002-7.138.045-1.163-.547-2.327-1.53-2.956-.752-.497-1.707-.666-2.585-.467z"/>
                        <path fill-rule="nonzero" d="M5.292 10.018c.018-.588.788-.93 1.239-.556.456.336.278.958.312 1.44.04 1.367-.137 2.77.26 4.101.493 1.73 1.746 3.224 3.363 4.012 1.42.71 3.105.85 4.63.425 2.164-.592 3.94-2.39 4.501-4.563.3-1.044.212-2.138.226-3.21.003-.536-.008-1.074.003-1.61-.001-.447.447-.821.887-.743.391.048.694.427.667.819-.002 1.107.008 2.214-.006 3.32-.068 2.388-1.262 4.713-3.176 6.146-1.175.909-2.613 1.451-4.086 1.611-.003 1.488.004 2.977-.003 4.464.015.552-.65.95-1.13.677-.313-.152-.459-.512-.426-.846.002-1.432.002-2.864.001-4.296-1.72-.178-3.384-.903-4.651-2.083-1.634-1.474-2.597-3.647-2.615-5.845 0-1.087-.01-2.176.004-3.263z"/>
                        <rect width="1.5" height="35" x="12.354" y="-4.318" rx=".75" transform="rotate(-45 13.104 13.182)"/>
                    </g>
                </g>
            </g>
        </g>
    </g>
</svg>
