<svg xmlns="http://www.w3.org/2000/svg" width="26" height="27" viewBox="0 0 26 27">
    <g fill="none" fill-rule="evenodd">
        <g fill="#002452">
            <g>
                <g>
                    <g transform="translate(-55 -954) translate(0 928) translate(40 11) translate(15 15)">
                        <path fill-rule="nonzero" d="M3.166 5.617c.327-.072.662-.093.996-.094h9.162c.548-.009 1.103.061 1.616.263 1.496.55 2.558 2.074 2.55 3.67.004 2.65.003 5.3 0 7.95.006 1.066-.439 2.123-1.21 2.86-.732.715-1.751 1.12-2.775 1.113-3.17.002-6.342.004-9.513 0-1.082-.001-2.15-.47-2.882-1.268C.43 19.387.047 18.4.05 17.406c-.003-2.334 0-4.668-.002-7.002.005-.69-.044-1.397.172-2.063.396-1.351 1.568-2.435 2.946-2.724m.265 1.565c-1.01.252-1.796 1.222-1.794 2.27-.002 2.676-.005 5.354.001 8.032.007 1.231 1.117 2.322 2.348 2.31 3.196.003 6.393.004 9.59 0 1.252.002 2.36-1.135 2.329-2.386.002-2.653.003-5.305-.001-7.957-.003-.88-.552-1.721-1.344-2.1-.378-.2-.814-.252-1.237-.242-2.937.002-5.874 0-8.811 0-.361.002-.729-.018-1.081.073zM23.13 7.767c.453-.228 1.014-.22 1.458.024.507.267.839.827.832 1.4.003 2.824 0 5.649 0 8.473.022.602-.324 1.198-.866 1.465-.448.236-1.007.228-1.455-.006-1.192-.595-2.385-1.189-3.575-1.788-.323-.154-.512-.538-.425-.886.092-.476.673-.766 1.106-.54 1.213.596 2.42 1.208 3.63 1.809V9.187c-1.207.599-2.41 1.208-3.619 1.805-.397.208-.934-.004-1.083-.426-.16-.382.044-.851.42-1.013 1.192-.596 2.384-1.192 3.577-1.786z"/>
                        <rect width="1.5" height="35" x="12.182" y="-4.318" rx=".75" transform="rotate(-45 12.932 13.182)"/>
                    </g>
                </g>
            </g>
        </g>
    </g>
</svg>
