<svg xmlns="http://www.w3.org/2000/svg" width="27" height="17" viewBox="0 0 27 17">
    <g fill="#fff">
        <path d="M3.15.142c.327-.073.663-.094.996-.094h9.162c.548-.01 1.103.06 1.617.262 1.495.55 2.557 2.075 2.549 3.67.005 2.65.003 5.3 0 7.95.007 1.066-.439 2.123-1.21 2.86-.732.715-1.75 1.12-2.775 1.114-3.17.002-6.342.003-9.513 0-1.081-.002-2.15-.471-2.882-1.268-.68-.724-1.063-1.712-1.06-2.705-.003-2.334 0-4.668-.001-7.003.004-.69-.044-1.396.172-2.063C.6 1.515 1.772.43 3.15.142m.264 1.565c-1.01.252-1.795 1.221-1.793 2.269-.003 2.677-.006 5.355 0 8.032.007 1.232 1.117 2.323 2.348 2.31 3.196.003 6.394.004 9.59 0 1.252.002 2.361-1.134 2.33-2.386.001-2.652.003-5.304-.002-7.956-.003-.88-.552-1.722-1.344-2.1-.377-.2-.814-.253-1.237-.242h-8.81c-.362.001-.73-.019-1.082.073zM23.114 2.291c.453-.227 1.014-.22 1.458.025.507.267.839.827.832 1.4.003 2.824 0 5.648 0 8.472.022.603-.323 1.198-.865 1.466-.449.235-1.007.227-1.456-.006-1.192-.596-2.385-1.19-3.575-1.788-.322-.154-.511-.538-.424-.886.092-.477.672-.766 1.105-.54 1.213.596 2.42 1.208 3.63 1.809V3.712c-1.207.598-2.41 1.208-3.618 1.804-.397.209-.935-.003-1.083-.425-.161-.382.044-.851.42-1.013 1.192-.596 2.384-1.193 3.576-1.787z" transform="translate(.016 .475)"/>
    </g>
</svg>
