<svg xmlns="http://www.w3.org/2000/svg" width="21" height="22" viewBox="0 0 21 22">
    <path fill="none" fill-rule="evenodd" stroke="#002452" stroke-linecap="round" stroke-linejoin="round" stroke-width="1.5" d="M1 20.412c.498-2.69.415-4.212 1.893-4.845l5.166-2.214V11s-1.112-.412-1.112-2.941c-1.154 0-1.154-2.353 0-2.353 0-.339-1.934-2.859.497-2.353C8.02 1 13.715 1 14.293 3.353c.152.822-.034 1.67-.518 2.353 1.12 0 .813 2.353.009 2.353 0 2.53-1.02 2.941-1.02 2.941v2.353l5.167 2.214c1.474.632 1.393 2.139 1.893 4.845H1z"/>
</svg>
