<?xml version="1.0" standalone="no"?>
<!DOCTYPE svg PUBLIC "-//W3C//DTD SVG 20010904//EN"
 "http://www.w3.org/TR/2001/REC-SVG-20010904/DTD/svg10.dtd">
<svg version="1.0" xmlns="http://www.w3.org/2000/svg"
 width="75.000000pt" height="67.000000pt" viewBox="0 0 75.000000 67.000000"
 preserveAspectRatio="xMidYMid meet">

<g transform="translate(0.000000,67.000000) scale(0.100000,-0.100000)"
fill="#fff" stroke="none">
<path d="M65 638 c-7 -8 -3 -19 15 -37 l25 -26 -30 -5 -30 -5 -3 -201 -2 -202
22 -6 c13 -3 87 -6 166 -6 134 0 142 -1 142 -20 0 -17 -8 -19 -72 -22 -57 -2
-73 -6 -73 -18 0 -13 24 -15 155 -15 131 0 155 2 155 15 0 12 -16 16 -72 18
-65 3 -73 5 -73 22 0 18 7 20 71 20 l70 0 64 -65 c36 -36 69 -65 74 -65 29 0
18 27 -28 70 -28 26 -51 51 -51 54 0 3 19 6 43 6 93 0 87 -14 87 210 0 171 -2
199 -16 204 -9 3 -135 6 -281 6 l-265 0 -38 40 c-43 44 -41 43 -55 28z m255
-277 c94 -93 170 -172 170 -175 0 -12 -98 -6 -104 7 -5 9 -7 9 -12 0 -4 -10
-44 -13 -150 -13 l-144 0 0 175 0 175 35 0 c33 0 50 -14 205 -169z m360 -6 l0
-175 -65 0 -64 0 -175 175 -175 175 239 0 240 0 0 -175z"/>
</g>
</svg>
