<?xml version="1.0" standalone="no"?>
<!DOCTYPE svg PUBLIC "-//W3C//DTD SVG 20010904//EN"
 "http://www.w3.org/TR/2001/REC-SVG-20010904/DTD/svg10.dtd">
<svg version="1.0" xmlns="http://www.w3.org/2000/svg"
 width="77.000000pt" height="59.000000pt" viewBox="0 0 77.000000 59.000000"
 preserveAspectRatio="xMidYMid meet">

<g transform="translate(0.000000,59.000000) scale(0.100000,-0.100000)"
fill="#000000" stroke="none">
<path d="M47 543 c-4 -3 -7 -95 -7 -204 0 -196 0 -197 22 -203 13 -3 87 -6
166 -6 134 0 142 -1 142 -20 0 -17 -8 -19 -72 -22 -57 -2 -73 -6 -73 -18 0
-13 24 -15 155 -15 131 0 155 2 155 15 0 12 -16 16 -72 18 -65 3 -73 5 -73 22
0 19 8 20 143 20 78 0 152 3 165 6 22 6 22 7 22 204 0 171 -2 199 -16 204 -21
8 -649 8 -657 -1z m633 -208 l0 -175 -144 0 c-106 0 -146 3 -150 13 -5 9 -7 9
-12 0 -4 -10 -44 -13 -150 -13 l-144 0 0 175 0 175 300 0 300 0 0 -175z"/>
</g>
</svg>
