<svg xmlns="http://www.w3.org/2000/svg" width="32" height="32" viewBox="0 0 32 32">
    <defs>
        <linearGradient id="prefix__a" x1=".033%" x2="100%" y1="50%" y2="50%">
            <stop offset="0%" stop-color="#0072AC"/>
            <stop offset="100%" stop-color="#2A3C77"/>
        </linearGradient>
        <linearGradient id="prefix__b" x1="0%" x2="99.967%" y1="50%" y2="50%">
            <stop offset="0%" stop-color="#F0772F"/>
            <stop offset="100%" stop-color="#EF9F2A"/>
        </linearGradient>
    </defs>
    <g fill="none">
        <ellipse cx="15.889" cy="16" fill="#FFF" rx="15.889" ry="16"/>
        <g transform="translate(4.772 4.902)">
            <circle cx="10.398" cy="4.292" r="2.898" fill="url(#prefix__a)" transform="rotate(-45 10.398 4.292)"/>
            <circle cx="18.301" cy="12.153" r="2.898" fill="url(#prefix__a)" transform="rotate(-45 18.3 12.153)"/>
            <path fill="#0072AC" d="M13.975.513c-1.989-.534-4.109.055-5.543 1.542-.343.35-.591.784-.72 1.26.068-.198.178-.378.322-.527.98-1.002 2.638-1.175 4.333-.427 1.713.736 3.27 1.795 4.586 3.121 1.302 1.356 2.338 2.948 3.052 4.691.731 1.747.566 3.44-.419 4.431-.184.19-.417.323-.671.386-.03.012-.06.022-.091.03.57-.1 1.097-.38 1.507-.8 1.459-1.49 2.031-3.643 1.507-5.668-.435-1.661-1.254-3.606-2.793-5.182-1.54-1.576-3.439-2.407-5.07-2.858z"/>
            <circle cx="4.782" cy="10.145" r="2.898" fill="url(#prefix__b)" transform="rotate(-45 4.782 10.145)"/>
            <circle cx="12.47" cy="18.227" r="2.898" fill="url(#prefix__b)" transform="rotate(-45 12.47 18.227)"/>
            <path fill="#EF9F2A" d="M1.088 13.8c-.525-2.024.048-4.178 1.507-5.668.341-.35.767-.604 1.236-.736-.193.07-.369.181-.515.33-.979 1.001-1.149 2.697-.418 4.431.715 1.744 1.75 3.335 3.052 4.691 1.317 1.326 2.874 2.385 4.586 3.121 1.71.748 3.363.578 4.334-.428.185-.189.315-.427.376-.688.012-.03.022-.061.03-.092-.098.582-.37 1.12-.781 1.542-1.435 1.486-3.555 2.075-5.543 1.541-1.636-.455-3.52-1.287-5.069-2.861-1.548-1.575-2.36-3.52-2.795-5.182z"/>
            <circle cx="11.271" cy="11.334" r="1.231" fill="#5E8640" transform="rotate(-45 11.27 11.334)"/>
            <circle cx="8.391" cy="14.28" r="1" fill="#EF9F2A" transform="rotate(-45 8.391 14.28)"/>
            <circle cx="14.015" cy="8.525" r="1" fill="#0072AC" transform="rotate(-45 14.015 8.525)"/>
        </g>
    </g>
</svg>
