<svg xmlns="http://www.w3.org/2000/svg" width="25" height="24" viewBox="0 0 25 24">
    <path fill="#3B5998" fill-rule="nonzero" d="M3.833 2h18.161c.46.08.843.462.918.924v18.16c-.082.46-.46.839-.921.916H16.72c-.003-2.58.004-5.16-.004-7.741.865-.003 1.73.004 2.596-.004.117-1.004.282-2.003.374-3.01h-2.97c.008-.681.001-1.362.003-2.042.004-.332.038-.692.264-.954.25-.301.665-.388 1.038-.404.585-.001 1.17.001 1.756.001-.003-.896-.001-1.792-.001-2.688-.813-.154-1.645-.088-2.467-.11-1.123-.032-2.266.459-2.947 1.364-.565.743-.744 1.698-.764 2.611-.002.74 0 1.481 0 2.221h-2.597v3.016c.865-.003 1.732-.001 2.598 0-.003 2.58-.001 5.16-.001 7.74h-9.77c-.46-.08-.84-.461-.916-.922V2.916c.08-.46.46-.84.92-.916z"/>
</svg>
