<svg xmlns="http://www.w3.org/2000/svg" width="25" height="24" viewBox="0 0 25 24">
    <g fill="none" fill-rule="nonzero">
        <path fill="#4285F4" d="M22.444 12.187c0-.82-.066-1.417-.21-2.037h-9.357v3.698h5.493c-.111.92-.71 2.303-2.038 3.233l-.018.124 2.958 2.292.205.02c1.882-1.738 2.967-4.296 2.967-7.33"/>
        <path fill="#34A853" d="M12.877 21.931c2.691 0 4.95-.886 6.6-2.414l-3.145-2.436c-.841.587-1.97.997-3.455.997-2.635 0-4.872-1.739-5.669-4.141l-.117.01-3.076 2.38-.04.112a9.958 9.958 0 0 0 8.902 5.492"/>
        <path fill="#FBBC05" d="M7.208 13.937a6.135 6.135 0 0 1-.332-1.971c0-.687.122-1.351.321-1.971l-.006-.132-3.114-2.42-.102.05a9.975 9.975 0 0 0-1.063 4.473c0 1.605.387 3.122 1.063 4.473l3.233-2.502"/>
        <path fill="#EB4335" d="M12.877 5.853c1.872 0 3.134.809 3.854 1.484l2.812-2.746C17.816 2.985 15.568 2 12.877 2a9.958 9.958 0 0 0-8.902 5.492l3.222 2.503c.808-2.403 3.045-4.142 5.68-4.142"/>
    </g>
</svg>
