<svg xmlns="http://www.w3.org/2000/svg" width="132" height="40" viewBox="0 0 132 40">
    <defs>
        <linearGradient id="a" x1=".033%" y1="50%" y2="50%">
            <stop offset="0%" stop-color="#0072AC"/>
            <stop offset="100%" stop-color="#2A3C77"/>
        </linearGradient>
        <linearGradient id="b" x1="0%" x2="99.967%" y1="50%" y2="50%">
            <stop offset="0%" stop-color="#F0772F"/>
            <stop offset="100%" stop-color="#EF9F2A"/>
        </linearGradient>
    </defs>
    <g fill="none" fill-rule="nonzero">
        <path fill="#002452" d="M52.413 9.66c0-.892.131-1.64.394-2.242.287-.723 1.005-1.084 2.153-1.084.263 0 .515.036.753.109.31.312.467.578.467.794 0 .965-.072 2.737-.216 5.317-.102 1.874-.143 3.431-.123 4.672.02 1.251.793.791 1.514.234.462-.357.904-.736 1.371-1.073.799-.576 1.555-.832 2.224-.832 1.509 0 3.083 1.267 1.077 2.279-.216.145-.838.506-1.866 1.084-.813.458-1.435.905-1.865 1.338 1.721 1.302 4.09 3.364 7.103 6.185.985 1.324-1.89 3.139-2.906 1.808-.527-.554-2.415-2.182-5.668-4.882-.12-.097-.227-.145-.323-.145-.167 0-.215.157-.143.47-.048.482.006 1.242.162 2.279.154 1.036.208 1.795.16 2.278-.306 2.62-2.81 1.55-3.559-1.707-1.02-4.444-.71-12.173-.71-16.882zm16.724 17.52c-1.96-1.135-2.941-2.93-2.941-5.39 0-.624.084-1.244.25-1.845.44-1.576 2.502-5.315 4.199-5.315 1.075 0 2.007.445 2.797 1.337.79.893 1.387 2.086 1.793 3.581.145.555.216 1.097.216 1.627 0 1.881-.897 3.773-2.69 5.679-.43.457-1.1.686-2.01.686-.645 0-1.183-.12-1.614-.36zm1.148-3.582c.192.048.37.073.538.073 1.077 0 1.615-.664 1.615-1.99 0-.623-.127-1.217-.381-1.784-.775-1.725-1.336-1.888-2.543-.259-.562.76-.843 1.501-.843 2.225 0 .915.538 1.494 1.614 1.736zm6.378-7.066c.024-.627.065-1.278.126-1.953.059-.675.316-1.169.77-1.483a3.24 3.24 0 0 1 1.22-.217c1.22 0 1.83.434 1.83 1.302l-.144 3.544c-.048 1.422 0 2.604.144 3.544.19.844.382 1.688.574 2.532.828 2.825 2.43 1.2 3.509-.58.698-1.152 1.047-2.55 1.047-4.194 0-1.59-.395-3.026-1.184-4.303-.431-.7-.646-1.327-.646-1.881 0-.7.479-1.048 1.435-1.048.932 0 1.757.53 2.475 1.59.645.94.993 1.93 1.04 2.966.144 2.483-.144 4.725-.86 6.727-.837 2.338-2.165 3.905-3.982 4.7-.742.314-1.435.471-2.081.471-1.818 0-3.205-1.182-4.162-3.544-.788-1.905-1.183-4.171-1.183-6.799 0-.481.024-.94.072-1.374zm13.727 3.254c-.06-.843-.09-1.47-.09-1.88 0-.916.108-1.663.323-2.242.216-.507.67-.76 1.363-.76.79 0 1.28.314 1.472.94.047.146.07.314.07.507 0 .24-.065.609-.197 1.103a7.15 7.15 0 0 0-.162.745c-.175 1.14.308.786.753.066.557-.9.947-1.46 1.15-1.697 1.697-2 3.186-1.6 4.029.62.399 1.05.685 2.241.848 3.575.075.602.18 2.47.324 5.605.263 1.061.108 1.676-.466 1.845-.646.192-1.149.289-1.508.289-.549 0-.86-.205-.932-.615-.12-.916-.227-2.41-.323-4.484-.072-1.88-.215-3.34-.43-4.376-.67.748-1.291 1.893-1.865 3.436-.742 1.929-1.268 3.163-1.579 3.706-.311.543-.777.814-1.399.814-.645 0-1.064-.373-1.256-1.121-.119-.53-.167-1.23-.143-2.097.069-1.504.124-2.486.018-3.979zm21.679-5.351c.98.481 1.65 1.084 2.009 1.808a.65.65 0 0 1 .108.397c0 .675-.228 1.157-.682 1.446-.22.122-.467.185-.717.182-.407 0-1.172-.338-2.296-1.013-1.124-.675-2.009-1.012-2.654-1.012a2.74 2.74 0 0 0-1.4.397.698.698 0 0 0-.323.615c0 .337.197.723.592 1.157.395.434.747.712 1.059.833 2.487.89 4.376 1.94 5.667 3.145.43.41.646.976.646 1.7 0 .844-.257 1.7-.771 2.567-.515.868-1.352 1.598-2.511 2.188-1.16.591-2.35.887-3.57.887-2.153 0-3.658-.905-4.52-2.713a1.12 1.12 0 0 1-.108-.506c0-.41.192-.79.575-1.14.382-.348.79-.536 1.219-.56.335-.048.634.169.897.652.31.554.562.88.753.976.43.216.92.325 1.472.325.836 0 1.571-.223 2.205-.669.634-.445.952-1.03.952-1.754 0-.555-.551-1.085-1.65-1.591a414.932 414.932 0 0 0-3.624-1.555c-1.291-.675-2.189-1.53-2.69-2.568a2.242 2.242 0 0 1-.216-.94c0-2.29 3.607-4.724 5.732-4.582 1.141.077 2.257.653 3.846 1.328zm2.906 4.845c-.024-1.64.454-3.007 1.435-4.105.98-1.096 2.236-1.645 3.767-1.645 1.625 0 3.066.62 4.322 1.863 1.255 1.242 1.871 2.693 1.847 4.357-.215.675-1.112 1.483-2.69 2.424-1.96 1.181-3.049 1.88-3.265 2.097-.406.193-.609.397-.609.614 0 .386.262.73.79 1.031.525.301.992.452 1.398.452.425 0 .952-.112 1.578-.336 1.037-.37 2.511-1.543 2.511.553 0 .459-.143.88-.43 1.266-.263.371-.664.62-1.112.687-1.531.241-2.5.362-2.906.362-.812 0-1.542-.145-2.188-.435-2.846-1.277-4.329-4.339-4.448-9.185zm3.91 1.845c1.68-.077 2.839-.566 3.475-1.468.17-.24.286-.518.4-.81.303-.782.096-1.366-.647-1.81a3.37 3.37 0 0 0-1.758-.469c-.478 0-.884.097-1.218.29-.695.361-1.041 1.12-1.041 2.277 0 1.279.262 1.941.789 1.99zm9.512-4.955c.025-.724-.084-1.802-.323-3.236-.24-1.435-.358-2.466-.358-3.093 0-.891.167-1.676.502-2.35.382-.772 1.04-1.157 1.973-1.157.957 0 1.47.506 1.542 1.518.024.145 0 .398-.071.76-.073.362-.109.59-.109.687v7.74c-.047.843-.035 1.964.036 3.363.096 1.663.145 2.76.145 3.29 0 1.953-.3 3.58-.898 4.883-.262.602-.74.903-1.435.903-.454 0-.903-.126-1.345-.379-.442-.254-.664-.718-.664-1.393 0-.192.036-.385.109-.578.43-1.495.681-3.303.753-5.424.047-1.858.095-3.701.144-5.534z"/>
        <ellipse cx="19.861" cy="20" fill="#FFF" rx="19.861" ry="20"/>
        <g transform="translate(5.965 6.127)">
            <circle cx="12.997" cy="5.365" r="3.623" fill="url(#a)" transform="rotate(-45 12.997 5.365)"/>
            <circle cx="22.876" cy="15.191" r="3.623" fill="url(#a)" transform="rotate(-45 22.876 15.19)"/>
            <path fill="#0072AC" d="M17.468.64a7.075 7.075 0 0 0-6.928 1.928c-.43.439-.739.981-.9 1.575a1.78 1.78 0 0 1 .402-.658c1.225-1.252 3.298-1.469 5.417-.534 2.14.92 4.087 2.244 5.732 3.902a18.694 18.694 0 0 1 3.816 5.863c.913 2.184.706 4.3-.524 5.54-.23.237-.522.403-.84.481a.836.836 0 0 1-.113.038 3.48 3.48 0 0 0 1.884-1 7.46 7.46 0 0 0 1.884-7.085c-.544-2.076-1.568-4.507-3.492-6.477-1.925-1.97-4.298-3.01-6.338-3.573z"/>
            <circle cx="5.977" cy="12.681" r="3.623" fill="url(#b)" transform="rotate(-45 5.977 12.681)"/>
            <circle cx="15.588" cy="22.784" r="3.623" fill="url(#b)" transform="rotate(-45 15.588 22.784)"/>
            <path fill="#EF9F2A" d="M1.36 17.25a7.46 7.46 0 0 1 1.884-7.085 3.488 3.488 0 0 1 1.544-.92c-.24.087-.46.227-.643.411-1.224 1.253-1.436 3.373-.522 5.54a18.694 18.694 0 0 0 3.815 5.864 18.218 18.218 0 0 0 5.732 3.902c2.136.934 4.204.722 5.417-.536.232-.236.394-.533.47-.86.016-.037.027-.076.038-.115a3.622 3.622 0 0 1-.977 1.927 7.075 7.075 0 0 1-6.928 1.927c-2.045-.569-4.4-1.609-6.336-3.577-1.935-1.968-2.95-4.4-3.494-6.477z"/>
            <circle cx="14.089" cy="14.167" r="1.538" fill="#5E8640" transform="rotate(-45 14.089 14.167)"/>
            <circle cx="10.489" cy="17.85" r="1" fill="#EF9F2A" transform="rotate(-45 10.49 17.85)"/>
            <circle cx="17.519" cy="10.656" r="1" fill="#0072AC" transform="rotate(-45 17.519 10.656)"/>
        </g>
    </g>
</svg>
