<svg xmlns="http://www.w3.org/2000/svg" width="24" height="24" viewBox="0 0 24 24">
    <g fill="none" fill-rule="evenodd" stroke="#E59937" stroke-linecap="round" stroke-linejoin="round" stroke-width="1.5">
        <path d="M9.009 19.494h-7.5c-.552 0-1-.448-1-1v-16c0-.552.448-1 1-1h14c.552 0 1 .448 1 1v7.5M4.509 2.494L4.509.494M8.509 2.494L8.509.494M12.509 2.494L12.509.494M22.889 14.114l-7.63 7.63-3.75.75.75-3.75 7.63-7.63c.826-.826 2.165-.826 2.991 0l.009.008c.826.826.826 2.166 0 2.992z" transform="translate(0 1)"/>
    </g>
</svg>
