<svg xmlns="http://www.w3.org/2000/svg" width="24" height="24" viewBox="0 0 24 24">
    <g fill="none" fill-rule="evenodd" stroke="#002452" stroke-linecap="round" stroke-linejoin="round" stroke-width="1.5">
        <path d="M8.686 10.971c-.667-.273-1.418-.557-2.224-.869-.682-.264-.57-2.121-.268-2.468.973-1.1 1.45-2.582 1.31-4.072.084-.928-.218-1.85-.828-2.53-.61-.68-1.471-1.056-2.364-1.03-.894-.026-1.755.349-2.366 1.03-.61.68-.912 1.602-.829 2.53-.14 1.49.337 2.972 1.31 4.072.302.347.415 2.2-.267 2.468-.78.302-1.506.577-2.16.843M11.576 8.614L20.612 8.614M11.576 5.471L20.612 5.471M11.576 2.186L20.612 2.186" transform="translate(1.6 7.746)"/>
    </g>
</svg>
