<svg xmlns="http://www.w3.org/2000/svg" width="24" height="24" viewBox="0 0 24 24">
    <path fill="#002452" d="M4 8.06h4.029c.437 0 2.8-.03 2.8 2.137 0 1.15-.784 1.538-1.137 1.712.527.167 1.49.652 1.49 2.137 0 2.292-2.627 2.394-2.98 2.394H4V8.06zm10.176 0h4.19v1.197h-4.19V8.06zm-8.38 1.454v1.964h1.928c.263 0 1.136-.144 1.136-1.024s-1.137-.94-1.31-.94H5.795zm10.613.342c2.334 0 2.968 1.82 3.064 2.25.09.437.09.82.09 1.341h-4.729c0 .52.276 1.694 1.67 1.694.372 0 .646-.09.928-.263.275-.174.372-.342.461-.516h1.574c-.275.689-.646 1.21-1.203 1.558-.557.347-1.203.52-1.945.52-.467 0-.928-.09-1.395-.263-.371-.174-.742-.431-1.017-.689-.275-.263-.461-.61-.647-1.041-.185-.348-.281-.868-.281-1.3 0-.43.173-3.291 3.43-3.291zm0 1.214c-1.353 0-1.575 1.3-1.575 1.383h2.97c-.096-.43-.485-1.383-1.395-1.383zM5.796 12.675v2.31h2.006c.173 0 1.393-.053 1.393-1.112 0-1.054-.959-1.198-1.393-1.198H5.796z"/>
</svg>
