<svg xmlns="http://www.w3.org/2000/svg" width="13" height="14" viewBox="0 0 13 14">
    <g fill="none" fill-rule="evenodd" stroke="#002452" stroke-linecap="round" stroke-linejoin="round" stroke-width="1.5" transform="translate(1 1)">
        <path d="M10.154 11.538H.924c-.51 0-.924-.413-.924-.923v-9.23C0 .875.413.462.923.462h9.23c.51 0 .924.413.924.923v9.23c0 .51-.413.923-.923.923z"/>
        <circle cx="3.808" cy="4.154" r="1.385"/>
        <path d="M11.077 9.462L8.87 6.15c-.127-.19-.34-.306-.569-.308-.228-.003-.444.108-.575.296L5.885 8.769l-1.141-.913c-.152-.12-.347-.173-.54-.143-.191.03-.361.139-.47.3l-2.35 3.525"/>
    </g>
</svg>
