<svg xmlns="http://www.w3.org/2000/svg" width="18" height="18" viewBox="0 0 18 18">
    <g fill="none" fill-rule="evenodd" stroke="#002452" stroke-linecap="round" stroke-linejoin="round" stroke-width="1.5" transform="translate(1.5 1)">
        <path d="M13.538 15.385H1.231C.55 15.385 0 14.834 0 14.154V1.846c0-.68.551-1.23 1.23-1.23h12.308c.68 0 1.231.55 1.231 1.23v12.308c0 .68-.55 1.23-1.23 1.23z"/>
        <circle cx="5.077" cy="5.538" r="1.846"/>
        <path d="M14.77 12.615l-2.944-4.414c-.169-.254-.452-.408-.757-.412-.306-.003-.593.144-.767.394l-2.456 3.51-1.521-1.218c-.202-.161-.463-.23-.719-.19-.255.039-.483.184-.626.4l-3.134 4.7"/>
    </g>
</svg>
