<svg xmlns="http://www.w3.org/2000/svg" width="24" height="24" viewBox="0 0 24 24">
    <g fill="none" fill-rule="evenodd" stroke="#002452" stroke-linecap="round" stroke-linejoin="round" stroke-width="1.5">
        <path d="M.5 23.5c.013-1.143.251-2.271.7-3.322.49-.981 2.539-1.661 5.111-2.613.695-.258.581-2.074.273-2.413-.992-1.075-1.479-2.522-1.336-3.978-.09-.926.21-1.847.827-2.544C6.692 7.933 7.57 7.524 8.5 7.5c.93.023 1.81.432 2.428 1.128.617.697.917 1.62.828 2.546.143 1.456-.344 2.903-1.336 3.978-.308.339-.422 2.155.273 2.413 2.572.952 4.621 1.632 5.111 2.613.449 1.05.687 2.18.7 3.322H.5zM13.979 12.034c.49.191 1 .326 1.521.4v3.07c.5-.5 3.5-3 4-3.461 2.354-.836 3.946-3.041 4-5.539C23.359 3.054 20.451.368 17 .5c-3.212-.105-5.993 2.214-6.467 5.393"/>
    </g>
</svg>
