<svg xmlns="http://www.w3.org/2000/svg" width="24" height="24" viewBox="0 0 24 24">
    <g fill="none" fill-rule="evenodd" stroke="#002452" stroke-linecap="round" stroke-linejoin="round" stroke-width="1.5">
        <path d="M7.083 19.583H1.25c-.46 0-.833-.373-.833-.833V1.25c0-.46.373-.833.833-.833h11.078c.22 0 .432.088.589.244l3.089 3.089c.156.156.244.368.244.59v2.743M19.067 12.6l-6.359 6.358-3.125.625.625-3.125 6.359-6.358c.33-.331.779-.517 1.246-.517.468 0 .917.186 1.247.517l.007.007c.33.33.517.779.517 1.246 0 .468-.186.917-.517 1.247z" transform="translate(2 2)"/>
    </g>
</svg>
