<?xml version="1.0" encoding="UTF-8"?>
<svg width="40px" height="40px" viewBox="0 0 40 40" version="1.1" xmlns="http://www.w3.org/2000/svg" xmlns:xlink="http://www.w3.org/1999/xlink">
    <title>FDC4FAF2-4FA6-4031-A969-71670C8BEE90</title>
    <g id="Page-1" stroke="none" stroke-width="1" fill="none" fill-rule="evenodd" stroke-linecap="round" stroke-linejoin="round">
        <g id="7.3-Profile-•-Attachments-•-Uploaded" transform="translate(-559.000000, -379.000000)" stroke="#1565C0" stroke-width="1.5">
            <g id="Group-3" transform="translate(552.000000, 224.000000)">
                <g id="icons/doc" transform="translate(7.000000, 155.000000)">
                    <g transform="translate(5.000000, 5.000000)" id="Path">
                        <path d="M6.996,30.9973331 L2.996,30.9973331 C1.8914305,30.9973331 0.996,30.1019028 0.996,28.9973331 L0.996,2.99733313 C0.996,1.89276383 1.8914305,0.997333128 2.996,0.997333128 L17.168,0.997333128 C17.6985249,0.997333128 18.2074087,1.20764902 18.5826667,1.58266667 L26.4106667,9.412 C26.7853577,9.78693119 26.996,10.2952704 26.996,10.8253333 L26.996,16.9973331"></path>
                        <path d="M26.996,10.9973333 L18.996,10.9973333 C17.8914305,10.9973333 16.996,10.1019028 16.996,8.99733333 L16.996,0.997333333"></path>
                        <path d="M10.996,30.9973333 C13.205139,30.9973333 14.996,29.2064723 14.996,26.9973333 L14.996,24.9973333 C14.996,22.7881943 13.205139,20.9973333 10.996,20.9973333 L10.996,30.9973333 Z"></path>
                        <path d="M20.996,20.9973333 C19.8914305,20.9973333 18.996,21.8927638 18.996,22.9973333 L18.996,28.9973333 C18.996,30.1019028 19.8914305,30.9973333 20.996,30.9973333 C22.1005695,30.9973333 22.996,30.1019028 22.996,28.9973333 L22.996,22.9973333 C22.996,21.8927638 22.1005695,20.9973333 20.996,20.9973333 L20.996,20.9973333 Z"></path>
                        <path d="M30.996,20.9973333 C28.786861,20.9973333 26.996,22.7881943 26.996,24.9973333 L26.996,26.9973333 C26.996,29.2064723 28.786861,30.9973333 30.996,30.9973333"></path>
                    </g>
                </g>
            </g>
        </g>
    </g>
</svg>