<svg xmlns="http://www.w3.org/2000/svg" width="24" height="24" viewBox="0 0 24 24">
    <g fill="none" fill-rule="evenodd" stroke="#002452" stroke-linecap="round" stroke-linejoin="round" stroke-width="1.5" transform="translate(4 3)">
        <path d="M15.23 17.308H1.386C.62 17.308 0 16.688 0 15.923V2.077C0 1.312.62.692 1.385.692H15.23c.764 0 1.384.62 1.384 1.385v13.846c0 .765-.62 1.385-1.384 1.385z"/>
        <circle cx="5.712" cy="6.231" r="2.077"/>
        <path d="M16.615 14.192l-3.31-4.966c-.19-.286-.51-.46-.853-.463-.343-.004-.666.162-.863.443l-2.762 3.948-1.711-1.37c-.228-.181-.521-.259-.809-.214-.287.044-.543.208-.705.45l-3.525 5.288"/>
    </g>
</svg>
