<svg xmlns="http://www.w3.org/2000/svg" width="18" height="18" viewBox="0 0 18 18">
    <g fill="none" fill-rule="evenodd" stroke="#FFF" stroke-linecap="round" stroke-linejoin="round" stroke-width="1.5">
        <path d="M7.91 1.829c.278.308.674.485 1.09.485.416 0 .812-.177 1.09-.486l.71-.778c.417-.461 1.078-.61 1.653-.372.574.238.936.811.905 1.432l-.054 1.05c-.02.414.135.818.428 1.111.293.294.696.45 1.11.43l1.05-.054c.62-.03 1.193.332 1.43.906.238.574.089 1.235-.372 1.652l-.781.705c-.31.278-.485.675-.485 1.09 0 .416.176.813.485 1.091l.781.705c.461.417.61 1.079.372 1.653-.238.574-.811.936-1.432.905l-1.05-.053c-.415-.022-.82.134-1.114.428-.294.294-.45.698-.428 1.114l.053 1.05c.028.617-.334 1.186-.905 1.422-.57.237-1.229.09-1.646-.365l-.706-.78c-.278-.31-.675-.485-1.09-.485-.416 0-.812.176-1.09.484l-.71.781c-.416.458-1.075.606-1.648.37-.572-.237-.934-.807-.906-1.426l.054-1.05c.021-.415-.134-.82-.428-1.114-.294-.294-.699-.45-1.114-.428l-1.05.053c-.62.033-1.194-.329-1.433-.903-.238-.573-.09-1.235.371-1.652l.78-.705c.31-.279.485-.675.485-1.09 0-.417-.176-.813-.484-1.092l-.781-.708C.59 6.788.443 6.128.68 5.555c.237-.572.808-.935 1.427-.905l1.05.053c.416.022.821-.134 1.116-.428.294-.295.45-.7.427-1.117l-.05-1.05c-.029-.62.333-1.19.906-1.427.572-.237 1.232-.09 1.649.369l.705.778z"/>
        <circle cx="9" cy="9.001" r="3"/>
    </g>
</svg>
