<svg xmlns="http://www.w3.org/2000/svg" width="24" height="24" viewBox="0 0 24 24">
    <g fill="#002452">
        <path d="M1.744 4.19C3.054 1.924 5.522.357 8.149.235c2.944-.218 5.856 1.42 7.33 3.953-.527.005-1.053.007-1.578.002-.709-.902-1.62-1.628-2.664-2.107.344.675.629 1.38.843 2.107-.466.003-.93.003-1.395 0-.324-.874-.678-1.81-1.435-2.403-.362-.31-.918-.31-1.28-.005-.761.594-1.119 1.53-1.439 2.408-.466.003-.931.003-1.397 0 .214-.728.499-1.434.845-2.11-1.041.484-1.953 1.21-2.664 2.11-.525.005-1.048.003-1.571-.002zM.124 6.18c.348.002.697 0 1.046 0 .187.903.357 1.81.552 2.713.236-.9.441-1.81.664-2.713.271 0 .54.002.81.005.227.905.444 1.812.686 2.712.186-.905.358-1.812.541-2.717h1.04c-.344 1.325-.689 2.649-1.04 3.973-.313-.002-.629 0-.942 0-.234-.832-.453-1.668-.689-2.5-.236.83-.455 1.664-.675 2.496-.318 0-.636.002-.956.006C.817 8.831.468 7.507.124 6.18zM5.94 6.18c.35.002.7.002 1.05.002.181.903.349 1.81.548 2.71.231-.902.441-1.81.664-2.712h.808c.23.903.446 1.81.686 2.71.192-.9.362-1.805.541-2.708.347 0 .693 0 1.04-.002-.342 1.325-.689 2.649-1.038 3.973h-.944c-.232-.834-.45-1.67-.691-2.5-.232.83-.45 1.666-.678 2.5h-.951C6.628 8.83 6.282 7.507 5.94 6.18zM11.753 6.18c.35.002.698.002 1.047 0 .187.905.357 1.815.554 2.717.227-.902.441-1.807.66-2.712.269-.003.538-.005.81-.005.231.903.445 1.812.686 2.713.19-.903.36-1.808.54-2.713.35.002.696.002 1.043 0l-1.038 3.973c-.318-.002-.633-.004-.949-.002-.227-.832-.448-1.666-.684-2.496-.24.827-.453 1.666-.68 2.498-.318 0-.633-.002-.949 0-.351-1.324-.695-2.648-1.04-3.973zM1.744 12.142c.523-.002 1.048-.005 1.571 0 .71.9 1.623 1.627 2.667 2.11-.347-.675-.634-1.382-.846-2.11.466-.002.932-.002 1.397 0 .32.874.676 1.808 1.43 2.401.36.307.912.314 1.276.01.766-.592 1.12-1.535 1.446-2.411.466-.002.93-.002 1.395 0-.214.728-.499 1.432-.845 2.108 1.044-.48 1.955-1.208 2.668-2.108.523-.005 1.049-.002 1.574.002-1.29 2.196-3.64 3.752-6.196 3.936-3.006.302-6.04-1.331-7.537-3.938z" transform="translate(3 4)"/>
    </g>
</svg>
