<svg xmlns="http://www.w3.org/2000/svg" width="24" height="24" viewBox="0 0 24 24">
    <path fill="#002452" d="M6.094 14.626c-.114-.907-.045-2.186.067-2.687.125-.556.434-.693.959-.482 1.04.417 2.076.84 3.112 1.263.327.134.472.365.457.702-.014.321-.171.524-.512.632-1.092.347-2.183.697-3.276 1.034-.435.137-.711-.012-.807-.462zm5.885 4.522c-.004.44-.231.672-.664.63-.97-.097-1.866-.428-2.669-.977-.364-.25-.392-.57-.112-.91.743-.895 1.495-1.786 2.25-2.674.21-.25.494-.305.796-.182.284.112.415.308.417.645.002.579 0 1.157 0 1.735h-.018c.002.576.008 1.155 0 1.733zm0-8.053c-.133.482-.613.623-.993.294-.154-.132-.284-.302-.395-.474-1.052-1.649-2.096-3.304-3.14-4.959-.303-.478-.241-.766.265-1.024 1.002-.508 2.068-.815 3.192-.882.535-.033.723.147.76.678.131 1.892.258 3.784.388 5.744-.018.165-.018.404-.077.623zm1.28.703c.685-.93 1.366-1.861 2.057-2.787.296-.396.617-.435.982-.096.679.631 1.186 1.387 1.51 2.256.176.47.02.743-.463.868-1.102.284-2.205.554-3.307.83-.067.016-.134.02-.19.028-.3-.008-.504-.15-.635-.394-.133-.243-.12-.48.047-.705zm4.56 4.616c-.374.74-.883 1.375-1.504 1.92-.096.084-.207.158-.323.213-.27.129-.523.076-.68-.176-.654-1.034-1.3-2.072-1.94-3.116-.163-.267-.081-.535.11-.764.183-.219.422-.302.695-.21 1.128.372 2.254.752 3.382 1.128.258.085.405.253.419.545-.051.155-.088.317-.16.46z"/>
</svg>
